<svg id="kity_svg_6" xmlns="http://www.w3.org/2000/svg" xmlns:xlink="http://www.w3.org/1999/xlink" version="1.1" width="387" height="256" style="background: rgb(251, 251, 251); visibility: visible;" viewBox="0 0 387 256"><defs id="kity_defs_7"><linearGradient id="kity_linearGradient_17" x1="0" y1="0" x2="0" y2="1"><stop id="kity_stop_18" offset="0" stop-color="rgb(255, 255, 255)"></stop><stop id="kity_stop_19" offset="1" stop-color="rgb(204, 204, 204)"></stop></linearGradient><marker id="kity_marker_2" orient="auto" refX="6" refY="0" viewBox="-7 -7 14 14" markerWidth="7" markerHeight="7" markerUnits="userSpaceOnUse"><path id="kity_path_3" fill="rgb(115, 161, 191)" stroke="none" d="M6,0A6,6,0,1,1,-6,0A6,6,0,1,1,6,0"></path></marker></defs><g id="kity_g_8"><g id="minder1" text-rendering="optimize-speed"><g id="minder_connect_group1"><path id="kity_path_31" fill="none" stroke="rgb(115, 161, 191)" stroke-width="1" d="M80.50000662356615,128.5000051483512A76,86,0,0,1,156.50000662356615,42.50000514835119"></path><path id="kity_path_39" fill="none" stroke="rgb(115, 161, 191)" stroke-width="1" d="M80.50000662356615,128.5000051483512A76,0,0,0,1,156.50000662356615,128.5000051483512"></path><path id="kity_path_47" fill="none" stroke="rgb(115, 161, 191)" stroke-width="1" d="M80.50000662356615,128.5000051483512A76,86,0,0,0,156.50000662356615,214.5000051483512"></path><path id="kity_path_55" fill="none" stroke="rgb(115, 161, 191)" stroke-width="1" d="M255.50000662356615,42.50000514835119C263.50000662356615,42.50000514835119,263.50000662356615,29.500005148351192,271.50000662356615,29.500005148351192"></path><path id="kity_path_63" fill="none" stroke="rgb(115, 161, 191)" stroke-width="1" d="M255.50000662356615,42.50000514835119C263.50000662356615,42.50000514835119,263.50000662356615,55.50000514835119,271.50000662356615,55.50000514835119"></path><path id="kity_path_71" fill="none" stroke="rgb(115, 161, 191)" stroke-width="1" d="M255.50000662356615,128.5000051483512C263.50000662356615,128.5000051483512,263.50000662356615,89.50000514835119,271.50000662356615,89.50000514835119"></path><path id="kity_path_79" fill="none" stroke="rgb(115, 161, 191)" stroke-width="1" d="M255.50000662356615,128.5000051483512C263.50000662356615,128.5000051483512,263.50000662356615,115.50000514835119,271.50000662356615,115.50000514835119"></path><path id="kity_path_87" fill="none" stroke="rgb(115, 161, 191)" stroke-width="1" d="M255.50000662356615,128.5000051483512C263.50000662356615,128.5000051483512,263.50000662356615,141.5000051483512,271.50000662356615,141.5000051483512"></path><path id="kity_path_95" fill="none" stroke="rgb(115, 161, 191)" stroke-width="1" d="M255.50000662356615,128.5000051483512C263.50000662356615,128.5000051483512,263.50000662356615,167.5000051483512,271.50000662356615,167.5000051483512"></path><path id="kity_path_103" fill="none" stroke="rgb(115, 161, 191)" stroke-width="1" d="M255.50000662356615,214.5000051483512C263.50000662356615,214.5000051483512,263.50000662356615,201.5000051483512,271.50000662356615,201.5000051483512"></path><path id="kity_path_111" fill="none" stroke="rgb(115, 161, 191)" stroke-width="1" d="M255.50000662356615,214.5000051483512C263.50000662356615,214.5000051483512,263.50000662356615,227.5000051483512,271.50000662356615,227.5000051483512"></path></g><g id="minder_node1"><path id="node_outline1" fill="rgb(115, 161, 191)" stroke="rgb(115, 161, 191)" d="M25.50000662356615,114.50000514835119h110a5,5,0,0,1,5,5v18a5,5,0,0,1,-5,5h-110a5,5,0,0,1,-5,-5v-18a5,5,0,0,1,5,-5z" stroke-width="3"></path><g id="node_text1" fill="white"><text id="kity_text_22" text-rendering="inherit" font-size="16" dy=".8em" y="118.1000051125884" x="32.50000662356615">三大分析思维</text></g></g><g id="kity_g_12"><path id="kity_path_13" fill="none" stroke="none" d="M32.50000662356615,128.5000051483512h0v0h0z"></path></g><g id="kity_g_14"><path id="kity_path_15" fill="none" stroke="none" d="M32.50000662356615,128.5000051483512h0v0h0z"></path><path id="kity_path_16" fill="none" stroke="none"></path></g><g id="minder_node2"><g id="node_expander1" style="cursor: pointer;"><path id="kity_path_36" fill="white" stroke="gray" d="M157.50000839680433,42.50000386685133A6,6,0,1,1,145.50000839680433,42.50000386685133A6,6,0,1,1,157.50000839680433,42.50000386685133"></path><path id="kity_path_37" fill="none" stroke="gray" d="M147.00000839680433,42.50000386685133L156.00000839680433,42.50000386685133"></path></g><path id="node_outline2" fill="rgb(238, 243, 246)" stroke="rgb(115, 161, 191)" d="M161.50000879913568,29.50000386685133h91a3,3,0,0,1,3,3v20a3,3,0,0,1,-3,3h-91a3,3,0,0,1,-3,-3v-20a3,3,0,0,1,3,-3z" stroke-width="1"></path><g id="node_text2" fill="black"><text id="kity_text_33" text-rendering="inherit" font-size="14" dy=".8em" y="33.40000383555889" x="178.50000879913568">对比思维</text></g></g><g id="minder_node3"><g id="node_expander2" style="cursor: pointer;"><path id="kity_path_44" fill="white" stroke="gray" d="M157.50000839680433,128.5000051483512A6,6,0,1,1,145.50000839680433,128.5000051483512A6,6,0,1,1,157.50000839680433,128.5000051483512"></path><path id="kity_path_45" fill="none" stroke="gray" d="M147.00000839680433,128.5000051483512L156.00000839680433,128.5000051483512"></path></g><path id="node_outline3" fill="rgb(238, 243, 246)" stroke="rgb(115, 161, 191)" d="M161.50000879913568,115.50000514835119h91a3,3,0,0,1,3,3v20a3,3,0,0,1,-3,3h-91a3,3,0,0,1,-3,-3v-20a3,3,0,0,1,3,-3z" stroke-width="1"></path><g id="node_text3" fill="black"><text id="kity_text_41" text-rendering="inherit" font-size="14" dy=".8em" y="119.40000511705875" x="178.50000879913568">分群思维</text></g></g><g id="minder_node4"><g id="node_expander3" style="cursor: pointer;"><path id="kity_path_52" fill="white" stroke="gray" d="M157.50000839680433,214.50000642985106A6,6,0,1,1,145.50000839680433,214.50000642985106A6,6,0,1,1,157.50000839680433,214.50000642985106"></path><path id="kity_path_53" fill="none" stroke="gray" d="M147.00000839680433,214.50000642985106L156.00000839680433,214.50000642985106"></path></g><path id="node_outline4" fill="rgb(238, 243, 246)" stroke="rgb(115, 161, 191)" d="M161.50000879913568,201.50000642985106h91a3,3,0,0,1,3,3v20a3,3,0,0,1,-3,3h-91a3,3,0,0,1,-3,-3v-20a3,3,0,0,1,3,-3z" stroke-width="1"></path><g id="node_text4" fill="black"><text id="kity_text_49" text-rendering="inherit" font-size="14" dy=".8em" y="205.40000639855862" x="178.50000879913568">相关思维</text></g></g><g id="minder_node5"><g id="node_expander4" style="cursor: pointer;" display="none"><path id="kity_path_60" fill="white" stroke="gray" d="M271.5000100955367,29.500003673136234A6,6,0,1,1,259.5000100955367,29.500003673136234A6,6,0,1,1,271.5000100955367,29.500003673136234"></path><path id="kity_path_61" fill="none" stroke="gray"></path></g><path id="node_outline5" fill="none" stroke="none" d="M276.5000102594495,20.500003673136234h50a5,5,0,0,1,5,5v8a5,5,0,0,1,-5,5h-50a5,5,0,0,1,-5,-5v-8a5,5,0,0,1,5,-5z" stroke-width="3"></path><g id="node_text5" fill="black"><text id="kity_text_57" text-rendering="inherit" font-size="12" dy=".8em" y="21.700003646314144" x="276.5000102594495">对比分析</text></g></g><g id="minder_node6"><g id="node_expander5" style="cursor: pointer;" display="none"><path id="kity_path_68" fill="white" stroke="gray" d="M271.5000100955367,55.500004060566425A6,6,0,1,1,259.5000100955367,55.500004060566425A6,6,0,1,1,271.5000100955367,55.500004060566425"></path><path id="kity_path_69" fill="none" stroke="gray"></path></g><path id="node_outline6" fill="none" stroke="none" d="M276.5000102594495,46.500004060566425h50a5,5,0,0,1,5,5v8a5,5,0,0,1,-5,5h-50a5,5,0,0,1,-5,-5v-8a5,5,0,0,1,5,-5z" stroke-width="3"></path><g id="node_text6" fill="black"><text id="kity_text_65" text-rendering="inherit" font-size="12" dy=".8em" y="47.700004033744335" x="276.5000102594495">线上实验</text></g></g><g id="minder_node7"><g id="node_expander6" style="cursor: pointer;" display="none"><path id="kity_path_76" fill="white" stroke="gray" d="M271.5000100955367,89.5000045672059A6,6,0,1,1,259.5000100955367,89.5000045672059A6,6,0,1,1,271.5000100955367,89.5000045672059"></path><path id="kity_path_77" fill="none" stroke="gray"></path></g><path id="node_outline7" fill="none" stroke="none" d="M276.5000102594495,80.5000045672059h62a5,5,0,0,1,5,5v8a5,5,0,0,1,-5,5h-62a5,5,0,0,1,-5,-5v-8a5,5,0,0,1,5,-5z" stroke-width="3"></path><g id="node_text7" fill="black"><text id="kity_text_73" text-rendering="inherit" font-size="12" dy=".8em" y="81.70000454038382" x="276.5000102594495">结构化分析</text></g></g><g id="minder_node8"><g id="node_expander7" style="cursor: pointer;" display="none"><path id="kity_path_84" fill="white" stroke="gray" d="M271.5000100955367,115.5000049546361A6,6,0,1,1,259.5000100955367,115.5000049546361A6,6,0,1,1,271.5000100955367,115.5000049546361"></path><path id="kity_path_85" fill="none" stroke="gray"></path></g><path id="node_outline8" fill="none" stroke="none" d="M276.5000102594495,106.5000049546361h61a5,5,0,0,1,5,5v8a5,5,0,0,1,-5,5h-61a5,5,0,0,1,-5,-5v-8a5,5,0,0,1,5,-5z" stroke-width="3"></path><g id="node_text8" fill="black"><text id="kity_text_81" text-rendering="inherit" font-size="12" dy=".8em" y="107.700004927814" x="276.5000102594495">同期群分析</text></g></g><g id="minder_node9"><g id="node_expander8" style="cursor: pointer;" display="none"><path id="kity_path_92" fill="white" stroke="gray" d="M271.5000100955367,141.5000053420663A6,6,0,1,1,259.5000100955367,141.5000053420663A6,6,0,1,1,271.5000100955367,141.5000053420663"></path><path id="kity_path_93" fill="none" stroke="gray"></path></g><path id="node_outline9" fill="none" stroke="none" d="M276.5000102594495,132.5000053420663h51a5,5,0,0,1,5,5v8a5,5,0,0,1,-5,5h-51a5,5,0,0,1,-5,-5v-8a5,5,0,0,1,5,-5z" stroke-width="3"></path><g id="node_text9" fill="black"><text id="kity_text_89" text-rendering="inherit" font-size="12" dy=".8em" y="133.7000053152442" x="276.5000102594495">RFM模型</text></g></g><g id="minder_node10"><g id="node_expander9" style="cursor: pointer;" display="none"><path id="kity_path_100" fill="white" stroke="gray" d="M271.5000100955367,167.50000572949648A6,6,0,1,1,259.5000100955367,167.50000572949648A6,6,0,1,1,271.5000100955367,167.50000572949648"></path><path id="kity_path_101" fill="none" stroke="gray"></path></g><path id="node_outline10" fill="none" stroke="none" d="M276.5000102594495,158.50000572949648h76a5,5,0,0,1,5,5v8a5,5,0,0,1,-5,5h-76a5,5,0,0,1,-5,-5v-8a5,5,0,0,1,5,-5z" stroke-width="3"></path><g id="node_text10" fill="black"><text id="kity_text_97" text-rendering="inherit" font-size="12" dy=".8em" y="159.7000057026744" x="276.5000102594495">K-Means模型</text></g></g><g id="minder_node11"><g id="node_expander10" style="cursor: pointer;" display="none"><path id="kity_path_108" fill="white" stroke="gray" d="M271.5000100955367,201.50000623613596A6,6,0,1,1,259.5000100955367,201.50000623613596A6,6,0,1,1,271.5000100955367,201.50000623613596"></path><path id="kity_path_109" fill="none" stroke="gray"></path></g><path id="node_outline11" fill="none" stroke="none" d="M276.5000102594495,192.50000623613596h86a5,5,0,0,1,5,5v8a5,5,0,0,1,-5,5h-86a5,5,0,0,1,-5,-5v-8a5,5,0,0,1,5,-5z" stroke-width="3"></path><g id="node_text11" fill="black"><text id="kity_text_105" text-rendering="inherit" font-size="12" dy=".8em" y="193.70000620931387" x="276.5000102594495">相关性与因果性</text></g></g><g id="minder_node12"><g id="node_expander11" style="cursor: pointer;" display="none"><path id="kity_path_116" fill="white" stroke="gray" d="M271.5000100955367,227.50000662356615A6,6,0,1,1,259.5000100955367,227.50000662356615A6,6,0,1,1,271.5000100955367,227.50000662356615"></path><path id="kity_path_117" fill="none" stroke="gray"></path></g><path id="node_outline12" fill="none" stroke="rgb(57, 80, 96)" d="M276.5000102594495,218.50000662356615h49a5,5,0,0,1,5,5v8a5,5,0,0,1,-5,5h-49a5,5,0,0,1,-5,-5v-8a5,5,0,0,1,5,-5z" stroke-width="3"></path><g id="node_text12" fill="black"><text id="kity_text_113" text-rendering="inherit" font-size="12" dy=".8em" y="219.70000659674406" x="276.5000102594495">因果推断</text></g></g></g></g></svg>