<svg id="kity_svg_6" xmlns="http://www.w3.org/2000/svg" xmlns:xlink="http://www.w3.org/1999/xlink" version="1.1" width="532" height="516" style="background: rgb(251, 251, 251); visibility: visible;" viewBox="0 0 532 516"><defs id="kity_defs_7"><linearGradient id="kity_linearGradient_17" x1="0" y1="0" x2="0" y2="1"><stop id="kity_stop_18" offset="0" stop-color="rgb(255, 255, 255)"></stop><stop id="kity_stop_19" offset="1" stop-color="rgb(204, 204, 204)"></stop></linearGradient><marker id="kity_marker_2" orient="auto" refX="6" refY="0" viewBox="-7 -7 14 14" markerWidth="7" markerHeight="7" markerUnits="userSpaceOnUse"><path id="kity_path_3" fill="rgb(115, 161, 191)" stroke="none" d="M6,0A6,6,0,1,1,-6,0A6,6,0,1,1,6,0"></path></marker></defs><g id="kity_g_8"><g id="minder1" text-rendering="optimize-speed"><g id="minder_connect_group1"><path id="kity_path_31" fill="none" stroke="rgb(115, 161, 191)" stroke-width="1" d="M65.50000400096178,217.50000409036875A61,149,0,0,1,126.50000400096178,68.50000409036875"></path><path id="kity_path_39" fill="none" stroke="rgb(115, 161, 191)" stroke-width="1" d="M65.50000400096178,217.50000409036875A61,50,0,0,1,126.50000400096178,167.50000409036875"></path><path id="kity_path_47" fill="none" stroke="rgb(115, 161, 191)" stroke-width="1" d="M65.50000400096178,217.50000409036875A61,149,0,0,0,126.50000400096178,366.50000409036875"></path><path id="kity_path_55" fill="none" stroke="rgb(115, 161, 191)" stroke-width="1" d="M282.5000040009618,68.50000409036875C290.5000040009618,68.50000409036875,290.5000040009618,29.500004090368748,298.5000040009618,29.500004090368748"></path><path id="kity_path_63" fill="none" stroke="rgb(115, 161, 191)" stroke-width="1" d="M282.5000040009618,68.50000409036875C290.5000040009618,68.50000409036875,290.5000040009618,55.50000409036875,298.5000040009618,55.50000409036875"></path><path id="kity_path_71" fill="none" stroke="rgb(115, 161, 191)" stroke-width="1" d="M282.5000040009618,68.50000409036875C290.5000040009618,68.50000409036875,290.5000040009618,81.50000409036875,298.5000040009618,81.50000409036875"></path><path id="kity_path_79" fill="none" stroke="rgb(115, 161, 191)" stroke-width="1" d="M282.5000040009618,68.50000409036875C290.5000040009618,68.50000409036875,290.5000040009618,107.50000409036875,298.5000040009618,107.50000409036875"></path><path id="kity_path_103" fill="none" stroke="rgb(115, 161, 191)" stroke-width="1" d="M281.5000040009618,167.50000409036875C289.5000040009618,167.50000409036875,289.5000040009618,141.50000409036875,297.5000040009618,141.50000409036875"></path><path id="kity_path_111" fill="none" stroke="rgb(115, 161, 191)" stroke-width="1" d="M281.5000040009618,167.50000409036875C289.5000040009618,167.50000409036875,289.5000040009618,167.50000409036875,297.5000040009618,167.50000409036875"></path><path id="kity_path_119" fill="none" stroke="rgb(115, 161, 191)" stroke-width="1" d="M281.5000040009618,167.50000409036875C289.5000040009618,167.50000409036875,289.5000040009618,193.50000409036875,297.5000040009618,193.50000409036875"></path><path id="kity_path_127" fill="none" stroke="rgb(115, 161, 191)" stroke-width="1" d="M282.5000040009618,366.50000409036875C290.5000040009618,366.50000409036875,290.5000040009618,291.50000409036875,298.5000040009618,291.50000409036875"></path><path id="kity_path_135" fill="none" stroke="rgb(115, 161, 191)" stroke-width="1" d="M282.5000040009618,366.50000409036875C290.5000040009618,366.50000409036875,290.5000040009618,441.50000409036875,298.5000040009618,441.50000409036875"></path><path id="kity_path_143" fill="none" stroke="rgb(115, 161, 191)" stroke-width="1" d="M356.5000040009618,291.50000409036875C364.5000040009618,291.50000409036875,364.5000040009618,226.50000409036875,372.5000040009618,226.50000409036875"></path><path id="kity_path_151" fill="none" stroke="rgb(115, 161, 191)" stroke-width="1" d="M356.5000040009618,291.50000409036875C364.5000040009618,291.50000409036875,364.5000040009618,252.50000409036875,372.5000040009618,252.50000409036875"></path><path id="kity_path_159" fill="none" stroke="rgb(115, 161, 191)" stroke-width="1" d="M356.5000040009618,291.50000409036875C364.5000040009618,291.50000409036875,364.5000040009618,278.50000409036875,372.5000040009618,278.50000409036875"></path><path id="kity_path_167" fill="none" stroke="rgb(115, 161, 191)" stroke-width="1" d="M356.5000040009618,291.50000409036875C364.5000040009618,291.50000409036875,364.5000040009618,304.50000409036875,372.5000040009618,304.50000409036875"></path><path id="kity_path_175" fill="none" stroke="rgb(115, 161, 191)" stroke-width="1" d="M356.5000040009618,291.50000409036875C364.5000040009618,291.50000409036875,364.5000040009618,330.50000409036875,372.5000040009618,330.50000409036875"></path><path id="kity_path_183" fill="none" stroke="rgb(115, 161, 191)" stroke-width="1" d="M356.5000040009618,291.50000409036875C364.5000040009618,291.50000409036875,364.5000040009618,356.50000409036875,372.5000040009618,356.50000409036875"></path><path id="kity_path_191" fill="none" stroke="rgb(115, 161, 191)" stroke-width="1" d="M357.5000040009618,441.50000409036875C365.5000040009618,441.50000409036875,365.5000040009618,396.50000409036875,373.5000040009618,396.50000409036875"></path><path id="kity_path_199" fill="none" stroke="rgb(115, 161, 191)" stroke-width="1" d="M357.5000040009618,441.50000409036875C365.5000040009618,441.50000409036875,365.5000040009618,448.50000409036875,373.5000040009618,448.50000409036875"></path><path id="kity_path_207" fill="none" stroke="rgb(115, 161, 191)" stroke-width="1" d="M357.5000040009618,441.50000409036875C365.5000040009618,441.50000409036875,365.5000040009618,487.50000409036875,373.5000040009618,487.50000409036875"></path><path id="kity_path_215" fill="none" stroke="rgb(115, 161, 191)" stroke-width="1" d="M408.5000040009618,396.50000409036875C416.5000040009618,396.50000409036875,416.5000040009618,383.50000409036875,424.5000040009618,383.50000409036875"></path><path id="kity_path_223" fill="none" stroke="rgb(115, 161, 191)" stroke-width="1" d="M408.5000040009618,396.50000409036875C416.5000040009618,396.50000409036875,416.5000040009618,409.50000409036875,424.5000040009618,409.50000409036875"></path><path id="kity_path_239" fill="none" stroke="rgb(115, 161, 191)" stroke-width="1" d="M407.5000040009618,448.50000409036875C415.5000040009618,448.50000409036875,415.5000040009618,435.50000409036875,423.5000040009618,435.50000409036875"></path><path id="kity_path_247" fill="none" stroke="rgb(115, 161, 191)" stroke-width="1" d="M407.5000040009618,448.50000409036875C415.5000040009618,448.50000409036875,415.5000040009618,461.50000409036875,423.5000040009618,461.50000409036875"></path></g><g id="minder_node1"><path id="node_outline1" fill="rgb(115, 161, 191)" stroke="rgb(115, 161, 191)" d="M25.50000400096178,203.50000409036875h80a5,5,0,0,1,5,5v18a5,5,0,0,1,-5,5h-80a5,5,0,0,1,-5,-5v-18a5,5,0,0,1,5,-5z" stroke-width="3"></path><g id="node_text1" fill="white"><text id="kity_text_22" text-rendering="inherit" font-size="16" dy=".8em" y="207.10000405460596" x="32.50000400096178">对比分析</text></g></g><g id="kity_g_12"><path id="kity_path_13" fill="none" stroke="none" d="M32.50000400096178,217.50000409036875h0v0h0z"></path></g><g id="kity_g_14"><path id="kity_path_15" fill="none" stroke="none" d="M32.50000400096178,217.50000409036875h0v0h0z"></path><path id="kity_path_16" fill="none" stroke="none"></path></g><g id="minder_node2"><g id="node_expander1" style="cursor: pointer;"><path id="kity_path_36" fill="white" stroke="gray" d="M127.50000532716513,68.50000187009573A6,6,0,1,1,115.50000532716513,68.50000187009573A6,6,0,1,1,127.50000532716513,68.50000187009573"></path><path id="kity_path_37" fill="none" stroke="gray" d="M117.00000532716513,68.50000187009573L126.00000532716513,68.50000187009573"></path></g><path id="node_outline2" fill="rgb(238, 243, 246)" stroke="rgb(115, 161, 191)" d="M131.50000572949648,55.50000187009573h148a3,3,0,0,1,3,3v20a3,3,0,0,1,-3,3h-148a3,3,0,0,1,-3,-3v-20a3,3,0,0,1,3,-3z" stroke-width="1"></path><g id="node_text2" fill="black"><text id="kity_text_33" text-rendering="inherit" font-size="14" dy=".8em" y="59.40000183880329" x="148.50000572949648">衡量数据整体大小</text></g></g><g id="minder_node3"><g id="node_expander2" style="cursor: pointer;"><path id="kity_path_44" fill="white" stroke="gray" d="M127.50000532716513,167.5000033453107A6,6,0,1,1,115.50000532716513,167.5000033453107A6,6,0,1,1,127.50000532716513,167.5000033453107"></path><path id="kity_path_45" fill="none" stroke="gray" d="M117.00000532716513,167.5000033453107L126.00000532716513,167.5000033453107"></path></g><path id="node_outline3" fill="rgb(238, 243, 246)" stroke="rgb(115, 161, 191)" d="M131.50000572949648,154.5000033453107h147a3,3,0,0,1,3,3v20a3,3,0,0,1,-3,3h-147a3,3,0,0,1,-3,-3v-20a3,3,0,0,1,3,-3z" stroke-width="1"></path><g id="node_text3" fill="black"><text id="kity_text_41" text-rendering="inherit" font-size="14" dy=".8em" y="158.40000331401825" x="148.50000572949648">衡量数据整体波动</text></g></g><g id="minder_node4"><g id="node_expander3" style="cursor: pointer;"><path id="kity_path_52" fill="white" stroke="gray" d="M127.50000532716513,366.50000631064177A6,6,0,1,1,115.50000532716513,366.50000631064177A6,6,0,1,1,127.50000532716513,366.50000631064177"></path><path id="kity_path_53" fill="none" stroke="gray" d="M117.00000532716513,366.50000631064177L126.00000532716513,366.50000631064177"></path></g><path id="node_outline4" fill="rgb(238, 243, 246)" stroke="rgb(115, 161, 191)" d="M131.50000572949648,353.50000631064177h148a3,3,0,0,1,3,3v20a3,3,0,0,1,-3,3h-148a3,3,0,0,1,-3,-3v-20a3,3,0,0,1,3,-3z" stroke-width="1"></path><g id="node_text4" fill="black"><text id="kity_text_49" text-rendering="inherit" font-size="14" dy=".8em" y="357.4000062793493" x="148.50000572949648">衡量数据变化趋势</text></g></g><g id="minder_node5"><g id="node_expander4" style="cursor: pointer;" display="none"><path id="kity_path_60" fill="white" stroke="gray" d="M298.5000078752637,29.500001288950443A6,6,0,1,1,286.5000078752637,29.500001288950443A6,6,0,1,1,298.5000078752637,29.500001288950443"></path><path id="kity_path_61" fill="none" stroke="gray"></path></g><path id="node_outline5" fill="none" stroke="none" d="M303.50000803917646,20.500001288950443h37a5,5,0,0,1,5,5v8a5,5,0,0,1,-5,5h-37a5,5,0,0,1,-5,-5v-8a5,5,0,0,1,5,-5z" stroke-width="3"></path><g id="node_text5" fill="black"><text id="kity_text_57" text-rendering="inherit" font-size="12" dy=".8em" y="21.700001262128353" x="303.50000803917646">平均值</text></g></g><g id="minder_node6"><g id="node_expander5" style="cursor: pointer;" display="none"><path id="kity_path_68" fill="white" stroke="gray" d="M298.5000078752637,55.500001676380634A6,6,0,1,1,286.5000078752637,55.500001676380634A6,6,0,1,1,298.5000078752637,55.500001676380634"></path><path id="kity_path_69" fill="none" stroke="gray"></path></g><path id="node_outline6" fill="none" stroke="none" d="M303.50000803917646,46.500001676380634h37a5,5,0,0,1,5,5v8a5,5,0,0,1,-5,5h-37a5,5,0,0,1,-5,-5v-8a5,5,0,0,1,5,-5z" stroke-width="3"></path><g id="node_text6" fill="black"><text id="kity_text_65" text-rendering="inherit" font-size="12" dy=".8em" y="47.700001649558544" x="303.50000803917646">中位数</text></g></g><g id="minder_node7"><g id="node_expander6" style="cursor: pointer;" display="none"><path id="kity_path_76" fill="white" stroke="gray" d="M298.5000078752637,81.50000206381083A6,6,0,1,1,286.5000078752637,81.50000206381083A6,6,0,1,1,298.5000078752637,81.50000206381083"></path><path id="kity_path_77" fill="none" stroke="gray"></path></g><path id="node_outline7" fill="none" stroke="none" d="M303.50000803917646,72.50000206381083h37a5,5,0,0,1,5,5v8a5,5,0,0,1,-5,5h-37a5,5,0,0,1,-5,-5v-8a5,5,0,0,1,5,-5z" stroke-width="3"></path><g id="node_text7" fill="black"><text id="kity_text_73" text-rendering="inherit" font-size="12" dy=".8em" y="73.70000203698874" x="303.50000803917646">目标数</text></g></g><g id="minder_node8"><g id="node_expander7" style="cursor: pointer;" display="none"><path id="kity_path_84" fill="white" stroke="gray" d="M298.5000078752637,107.50000245124102A6,6,0,1,1,286.5000078752637,107.50000245124102A6,6,0,1,1,298.5000078752637,107.50000245124102"></path><path id="kity_path_85" fill="none" stroke="gray"></path></g><path id="node_outline8" fill="none" stroke="none" d="M303.50000803917646,98.50000245124102h62a5,5,0,0,1,5,5v8a5,5,0,0,1,-5,5h-62a5,5,0,0,1,-5,-5v-8a5,5,0,0,1,5,-5z" stroke-width="3"></path><g id="node_text8" fill="black"><text id="kity_text_81" text-rendering="inherit" font-size="12" dy=".8em" y="99.70000242441893" x="303.50000803917646">行业金标准</text></g></g><g id="minder_node11"><g id="node_expander10" style="cursor: pointer;" display="none"><path id="kity_path_108" fill="white" stroke="gray" d="M297.50000786036253,141.5000029578805A6,6,0,1,1,285.50000786036253,141.5000029578805A6,6,0,1,1,297.50000786036253,141.5000029578805"></path><path id="kity_path_109" fill="none" stroke="gray"></path></g><path id="node_outline11" fill="none" stroke="none" d="M302.5000080242753,132.5000029578805h50a5,5,0,0,1,5,5v8a5,5,0,0,1,-5,5h-50a5,5,0,0,1,-5,-5v-8a5,5,0,0,1,5,-5z" stroke-width="3"></path><g id="node_text11" fill="black"><text id="kity_text_105" text-rendering="inherit" font-size="12" dy=".8em" y="133.7000029310584" x="302.5000080242753">变异系数</text></g></g><g id="minder_node12"><g id="node_expander11" style="cursor: pointer;" display="none"><path id="kity_path_116" fill="white" stroke="gray" d="M297.50000786036253,167.5000033453107A6,6,0,1,1,285.50000786036253,167.5000033453107A6,6,0,1,1,297.50000786036253,167.5000033453107"></path><path id="kity_path_117" fill="none" stroke="gray"></path></g><path id="node_outline12" fill="none" stroke="none" d="M302.5000080242753,158.5000033453107h26a5,5,0,0,1,5,5v8a5,5,0,0,1,-5,5h-26a5,5,0,0,1,-5,-5v-8a5,5,0,0,1,5,-5z" stroke-width="3"></path><g id="node_text12" fill="black"><text id="kity_text_113" text-rendering="inherit" font-size="12" dy=".8em" y="159.7000033184886" x="302.5000080242753">方差</text></g></g><g id="minder_node13"><g id="node_expander12" style="cursor: pointer;" display="none"><path id="kity_path_124" fill="white" stroke="gray" d="M297.50000786036253,193.50000373274088A6,6,0,1,1,285.50000786036253,193.50000373274088A6,6,0,1,1,297.50000786036253,193.50000373274088"></path><path id="kity_path_125" fill="none" stroke="gray"></path></g><path id="node_outline13" fill="none" stroke="none" d="M302.5000080242753,184.50000373274088h38a5,5,0,0,1,5,5v8a5,5,0,0,1,-5,5h-38a5,5,0,0,1,-5,-5v-8a5,5,0,0,1,5,-5z" stroke-width="3"></path><g id="node_text13" fill="black"><text id="kity_text_121" text-rendering="inherit" font-size="12" dy=".8em" y="185.7000037059188" x="302.5000080242753">标准差</text></g></g><g id="minder_node14"><g id="node_expander13" style="cursor: pointer;"><path id="kity_path_132" fill="white" stroke="gray" d="M298.5000078752637,291.5000051930547A6,6,0,1,1,286.5000078752637,291.5000051930547A6,6,0,1,1,298.5000078752637,291.5000051930547"></path><path id="kity_path_133" fill="none" stroke="gray" d="M288.0000078752637,291.5000051930547L297.0000078752637,291.5000051930547"></path></g><path id="node_outline14" fill="none" stroke="none" d="M303.50000803917646,282.5000051930547h48a5,5,0,0,1,5,5v8a5,5,0,0,1,-5,5h-48a5,5,0,0,1,-5,-5v-8a5,5,0,0,1,5,-5z" stroke-width="3"></path><g id="node_text14" fill="black"><text id="kity_text_129" text-rendering="inherit" font-size="12" dy=".8em" y="283.7000051662326" x="303.50000803917646">时间维度</text></g></g><g id="minder_node15"><g id="node_expander14" style="cursor: pointer;"><path id="kity_path_140" fill="white" stroke="gray" d="M298.5000078752637,441.50000742822886A6,6,0,1,1,286.5000078752637,441.50000742822886A6,6,0,1,1,298.5000078752637,441.50000742822886"></path><path id="kity_path_141" fill="none" stroke="gray" d="M288.0000078752637,441.50000742822886L297.0000078752637,441.50000742822886"></path></g><path id="node_outline15" fill="none" stroke="none" d="M303.50000803917646,432.50000742822886h49a5,5,0,0,1,5,5v8a5,5,0,0,1,-5,5h-49a5,5,0,0,1,-5,-5v-8a5,5,0,0,1,5,-5z" stroke-width="3"></path><g id="node_text15" fill="black"><text id="kity_text_137" text-rendering="inherit" font-size="12" dy=".8em" y="433.70000740140676" x="303.50000803917646">空间维度</text></g></g><g id="minder_node16"><g id="node_expander15" style="cursor: pointer;" display="none"><path id="kity_path_148" fill="white" stroke="gray" d="M372.5000089779496,226.5000042244792A6,6,0,1,1,360.5000089779496,226.5000042244792A6,6,0,1,1,372.5000089779496,226.5000042244792"></path><path id="kity_path_149" fill="none" stroke="gray"></path></g><path id="node_outline16" fill="none" stroke="none" d="M377.5000091418624,217.5000042244792h50a5,5,0,0,1,5,5v8a5,5,0,0,1,-5,5h-50a5,5,0,0,1,-5,-5v-8a5,5,0,0,1,5,-5z" stroke-width="3"></path><g id="node_text16" fill="black"><text id="kity_text_145" text-rendering="inherit" font-size="12" dy=".8em" y="218.7000041976571" x="377.5000091418624">横向比较</text></g></g><g id="minder_node17"><g id="node_expander16" style="cursor: pointer;" display="none"><path id="kity_path_156" fill="white" stroke="gray" d="M372.5000089779496,252.5000046119094A6,6,0,1,1,360.5000089779496,252.5000046119094A6,6,0,1,1,372.5000089779496,252.5000046119094"></path><path id="kity_path_157" fill="none" stroke="gray"></path></g><path id="node_outline17" fill="none" stroke="none" d="M377.5000091418624,243.5000046119094h50a5,5,0,0,1,5,5v8a5,5,0,0,1,-5,5h-50a5,5,0,0,1,-5,-5v-8a5,5,0,0,1,5,-5z" stroke-width="3"></path><g id="node_text17" fill="black"><text id="kity_text_153" text-rendering="inherit" font-size="12" dy=".8em" y="244.7000045850873" x="377.5000091418624">纵向比较</text></g></g><g id="minder_node18"><g id="node_expander17" style="cursor: pointer;" display="none"><path id="kity_path_164" fill="white" stroke="gray" d="M372.5000089779496,278.5000049993396A6,6,0,1,1,360.5000089779496,278.5000049993396A6,6,0,1,1,372.5000089779496,278.5000049993396"></path><path id="kity_path_165" fill="none" stroke="gray"></path></g><path id="node_outline18" fill="none" stroke="none" d="M377.5000091418624,269.5000049993396h25a5,5,0,0,1,5,5v8a5,5,0,0,1,-5,5h-25a5,5,0,0,1,-5,-5v-8a5,5,0,0,1,5,-5z" stroke-width="3"></path><g id="node_text18" fill="black"><text id="kity_text_161" text-rendering="inherit" font-size="12" dy=".8em" y="270.7000049725175" x="377.5000091418624">同比</text></g></g><g id="minder_node19"><g id="node_expander18" style="cursor: pointer;" display="none"><path id="kity_path_172" fill="white" stroke="gray" d="M372.5000089779496,304.50000538676977A6,6,0,1,1,360.5000089779496,304.50000538676977A6,6,0,1,1,372.5000089779496,304.50000538676977"></path><path id="kity_path_173" fill="none" stroke="gray"></path></g><path id="node_outline19" fill="none" stroke="none" d="M377.5000091418624,295.50000538676977h26a5,5,0,0,1,5,5v8a5,5,0,0,1,-5,5h-26a5,5,0,0,1,-5,-5v-8a5,5,0,0,1,5,-5z" stroke-width="3"></path><g id="node_text19" fill="black"><text id="kity_text_169" text-rendering="inherit" font-size="12" dy=".8em" y="296.7000053599477" x="377.5000091418624">环比</text></g></g><g id="minder_node20"><g id="node_expander19" style="cursor: pointer;" display="none"><path id="kity_path_180" fill="white" stroke="gray" d="M372.5000089779496,330.50000577419996A6,6,0,1,1,360.5000089779496,330.50000577419996A6,6,0,1,1,372.5000089779496,330.50000577419996"></path><path id="kity_path_181" fill="none" stroke="gray"></path></g><path id="node_outline20" fill="none" stroke="none" d="M377.5000091418624,321.50000577419996h26a5,5,0,0,1,5,5v8a5,5,0,0,1,-5,5h-26a5,5,0,0,1,-5,-5v-8a5,5,0,0,1,5,-5z" stroke-width="3"></path><g id="node_text20" fill="black"><text id="kity_text_177" text-rendering="inherit" font-size="12" dy=".8em" y="322.7000057473779" x="377.5000091418624">定比</text></g></g><g id="minder_node21"><g id="node_expander20" style="cursor: pointer;" display="none"><path id="kity_path_188" fill="white" stroke="gray" d="M372.5000089779496,356.50000616163015A6,6,0,1,1,360.5000089779496,356.50000616163015A6,6,0,1,1,372.5000089779496,356.50000616163015"></path><path id="kity_path_189" fill="none" stroke="gray"></path></g><path id="node_outline21" fill="none" stroke="none" d="M377.5000091418624,347.50000616163015h74a5,5,0,0,1,5,5v8a5,5,0,0,1,-5,5h-74a5,5,0,0,1,-5,-5v-8a5,5,0,0,1,5,-5z" stroke-width="3"></path><g id="node_text21" fill="black"><text id="kity_text_185" text-rendering="inherit" font-size="12" dy=".8em" y="348.70000613480806" x="377.5000091418624">特殊时期对比</text></g></g><g id="minder_node22"><g id="node_expander21" style="cursor: pointer;"><path id="kity_path_196" fill="white" stroke="gray" d="M373.5000089928508,396.5000067576766A6,6,0,1,1,361.5000089928508,396.5000067576766A6,6,0,1,1,373.5000089928508,396.5000067576766"></path><path id="kity_path_197" fill="none" stroke="gray" d="M363.0000089928508,396.5000067576766L372.0000089928508,396.5000067576766"></path></g><path id="node_outline22" fill="none" stroke="none" d="M378.50000915676355,387.5000067576766h25a5,5,0,0,1,5,5v8a5,5,0,0,1,-5,5h-25a5,5,0,0,1,-5,-5v-8a5,5,0,0,1,5,-5z" stroke-width="3"></path><g id="node_text22" fill="black"><text id="kity_text_193" text-rendering="inherit" font-size="12" dy=".8em" y="388.7000067308545" x="378.50000915676355">产品</text></g></g><g id="minder_node23"><g id="node_expander22" style="cursor: pointer;"><path id="kity_path_204" fill="white" stroke="gray" d="M373.5000089928508,448.500007532537A6,6,0,1,1,361.5000089928508,448.500007532537A6,6,0,1,1,373.5000089928508,448.500007532537"></path><path id="kity_path_205" fill="none" stroke="gray" d="M363.0000089928508,448.500007532537L372.0000089928508,448.500007532537"></path></g><path id="node_outline23" fill="none" stroke="none" d="M378.50000915676355,439.500007532537h24a5,5,0,0,1,5,5v8a5,5,0,0,1,-5,5h-24a5,5,0,0,1,-5,-5v-8a5,5,0,0,1,5,-5z" stroke-width="3"></path><g id="node_text23" fill="black"><text id="kity_text_201" text-rendering="inherit" font-size="12" dy=".8em" y="440.7000075057149" x="378.50000915676355">用户</text></g></g><g id="minder_node24"><g id="node_expander23" style="cursor: pointer;" display="none"><path id="kity_path_212" fill="white" stroke="gray" d="M373.5000089928508,487.50000811368227A6,6,0,1,1,361.5000089928508,487.50000811368227A6,6,0,1,1,373.5000089928508,487.50000811368227"></path><path id="kity_path_213" fill="none" stroke="gray"></path></g><path id="node_outline24" fill="none" stroke="none" d="M378.50000915676355,478.50000811368227h25a5,5,0,0,1,5,5v8a5,5,0,0,1,-5,5h-25a5,5,0,0,1,-5,-5v-8a5,5,0,0,1,5,-5z" stroke-width="3"></path><g id="node_text24" fill="black"><text id="kity_text_209" text-rendering="inherit" font-size="12" dy=".8em" y="479.7000080868602" x="378.50000915676355">区域</text></g></g><g id="minder_node25"><g id="node_expander24" style="cursor: pointer;" display="none"><path id="kity_path_220" fill="white" stroke="gray" d="M424.50000975281,383.5000065639615A6,6,0,1,1,412.50000975281,383.5000065639615A6,6,0,1,1,424.50000975281,383.5000065639615"></path><path id="kity_path_221" fill="none" stroke="gray"></path></g><path id="node_outline25" fill="none" stroke="none" d="M429.5000099167228,374.5000065639615h78a5,5,0,0,1,5,5v8a5,5,0,0,1,-5,5h-78a5,5,0,0,1,-5,-5v-8a5,5,0,0,1,5,-5z" stroke-width="3"></path><g id="node_text25" fill="black"><text id="kity_text_217" text-rendering="inherit" font-size="12" dy=".8em" y="375.7000065371394" x="429.5000099167228">相似/先进产品</text></g></g><g id="minder_node26"><g id="node_expander25" style="cursor: pointer;" display="none"><path id="kity_path_228" fill="white" stroke="gray" d="M424.50000975281,409.5000069513917A6,6,0,1,1,412.50000975281,409.5000069513917A6,6,0,1,1,424.50000975281,409.5000069513917"></path><path id="kity_path_229" fill="none" stroke="gray"></path></g><path id="node_outline26" fill="none" stroke="none" d="M429.5000099167228,400.5000069513917h73a5,5,0,0,1,5,5v8a5,5,0,0,1,-5,5h-73a5,5,0,0,1,-5,-5v-8a5,5,0,0,1,5,-5z" stroke-width="3"></path><g id="node_text26" fill="black"><text id="kity_text_225" text-rendering="inherit" font-size="12" dy=".8em" y="401.7000069245696" x="429.5000099167228">不同版本产品</text></g></g><g id="minder_node28"><g id="node_expander27" style="cursor: pointer;" display="none"><path id="kity_path_244" fill="white" stroke="gray" d="M423.50000973790884,435.5000073388219A6,6,0,1,1,411.50000973790884,435.5000073388219A6,6,0,1,1,423.50000973790884,435.5000073388219"></path><path id="kity_path_245" fill="none" stroke="gray"></path></g><path id="node_outline28" fill="none" stroke="none" d="M428.5000099018216,426.5000073388219h47a5,5,0,0,1,5,5v8a5,5,0,0,1,-5,5h-47a5,5,0,0,1,-5,-5v-8a5,5,0,0,1,5,-5z" stroke-width="3"></path><g id="node_text28" fill="black"><text id="kity_text_241" text-rendering="inherit" font-size="12" dy=".8em" y="427.7000073119998" x="428.5000099018216">A/B实验</text></g></g><g id="minder_node29"><g id="node_expander28" style="cursor: pointer;" display="none"><path id="kity_path_252" fill="white" stroke="gray" d="M423.50000973790884,461.5000077262521A6,6,0,1,1,411.50000973790884,461.5000077262521A6,6,0,1,1,423.50000973790884,461.5000077262521"></path><path id="kity_path_253" fill="none" stroke="gray"></path></g><path id="node_outline29" fill="none" stroke="none" d="M428.5000099018216,452.5000077262521h49a5,5,0,0,1,5,5v8a5,5,0,0,1,-5,5h-49a5,5,0,0,1,-5,-5v-8a5,5,0,0,1,5,-5z" stroke-width="3"></path><g id="node_text29" fill="black"><text id="kity_text_249" text-rendering="inherit" font-size="12" dy=".8em" y="453.70000769943" x="428.5000099018216">用户分层</text></g></g></g></g></svg>