<svg id="kity_svg_6" xmlns="http://www.w3.org/2000/svg" xmlns:xlink="http://www.w3.org/1999/xlink" version="1.1" width="545" height="238" style="background: rgb(251, 251, 251); visibility: visible;" viewBox="0 0 545 238"><defs id="kity_defs_7"><linearGradient id="kity_linearGradient_17" x1="0" y1="0" x2="0" y2="1"><stop id="kity_stop_18" offset="0" stop-color="rgb(255, 255, 255)"></stop><stop id="kity_stop_19" offset="1" stop-color="rgb(204, 204, 204)"></stop></linearGradient><marker id="kity_marker_2" orient="auto" refX="6" refY="0" viewBox="-7 -7 14 14" markerWidth="7" markerHeight="7" markerUnits="userSpaceOnUse"><path id="kity_path_3" fill="rgb(115, 161, 191)" stroke="none" d="M6,0A6,6,0,1,1,-6,0A6,6,0,1,1,6,0"></path></marker></defs><g id="kity_g_8"><g id="minder1" text-rendering="optimize-speed"><g id="minder_connect_group1"><path id="kity_path_31" fill="none" stroke="rgb(115, 161, 191)" stroke-width="1" d="M81.00000662356615,136.5000051483512A76.5,68,0,0,1,157.50000662356615,68.50000514835119"></path><path id="kity_path_39" fill="none" stroke="rgb(115, 161, 191)" stroke-width="1" d="M81.00000662356615,136.5000051483512A76.5,18,0,0,0,157.50000662356615,154.5000051483512"></path><path id="kity_path_47" fill="none" stroke="rgb(115, 161, 191)" stroke-width="1" d="M81.00000662356615,136.5000051483512A76.5,69,0,0,0,157.50000662356615,205.5000051483512"></path><path id="kity_path_55" fill="none" stroke="rgb(115, 161, 191)" stroke-width="1" d="M325.50000662356615,68.50000514835119C333.50000662356615,68.50000514835119,333.50000662356615,29.500005148351192,341.50000662356615,29.500005148351192"></path><path id="kity_path_71" fill="none" stroke="rgb(115, 161, 191)" stroke-width="1" d="M325.50000662356615,68.50000514835119C333.50000662356615,68.50000514835119,333.50000662356615,55.50000514835119,341.50000662356615,55.50000514835119"></path><path id="kity_path_79" fill="none" stroke="rgb(115, 161, 191)" stroke-width="1" d="M325.50000662356615,68.50000514835119C333.50000662356615,68.50000514835119,333.50000662356615,81.50000514835119,341.50000662356615,81.50000514835119"></path><path id="kity_path_87" fill="none" stroke="rgb(115, 161, 191)" stroke-width="1" d="M325.50000662356615,68.50000514835119C333.50000662356615,68.50000514835119,333.50000662356615,107.50000514835119,341.50000662356615,107.50000514835119"></path><path id="kity_path_103" fill="none" stroke="rgb(115, 161, 191)" stroke-width="1" d="M326.50000662356615,154.5000051483512C334.50000662356615,154.5000051483512,334.50000662356615,141.5000051483512,342.50000662356615,141.5000051483512"></path><path id="kity_path_111" fill="none" stroke="rgb(115, 161, 191)" stroke-width="1" d="M326.50000662356615,154.5000051483512C334.50000662356615,154.5000051483512,334.50000662356615,167.5000051483512,342.50000662356615,167.5000051483512"></path></g><g id="minder_node1"><path id="node_outline1" fill="rgb(115, 161, 191)" stroke="rgb(115, 161, 191)" d="M25.50000662356615,122.50000514835119h111a5,5,0,0,1,5,5v18a5,5,0,0,1,-5,5h-111a5,5,0,0,1,-5,-5v-18a5,5,0,0,1,5,-5z" stroke-width="3"></path><g id="node_text1" fill="white"><text id="kity_text_22" text-rendering="inherit" font-size="16" dy=".8em" y="126.1000051125884" x="32.50000662356615">用户流失分析</text></g></g><g id="kity_g_12"><path id="kity_path_13" fill="none" stroke="none" d="M32.50000662356615,136.5000051483512h0v0h0z"></path></g><g id="kity_g_14"><path id="kity_path_15" fill="none" stroke="none" d="M32.50000662356615,136.5000051483512h0v0h0z"></path><path id="kity_path_16" fill="none" stroke="none"></path></g><g id="minder_node2"><g id="node_expander1" style="cursor: pointer;"><path id="kity_path_36" fill="white" stroke="gray" d="M158.5000084117055,68.50000413507223A6,6,0,1,1,146.5000084117055,68.50000413507223A6,6,0,1,1,158.5000084117055,68.50000413507223"></path><path id="kity_path_37" fill="none" stroke="gray" d="M148.0000084117055,68.50000413507223L157.0000084117055,68.50000413507223"></path></g><path id="node_outline2" fill="rgb(238, 243, 246)" stroke="rgb(115, 161, 191)" d="M162.50000881403685,55.50000413507223h160a3,3,0,0,1,3,3v20a3,3,0,0,1,-3,3h-160a3,3,0,0,1,-3,-3v-20a3,3,0,0,1,3,-3z" stroke-width="1"></path><g id="node_text2" fill="black"><text id="kity_text_33" text-rendering="inherit" font-size="14" dy=".8em" y="59.40000410377979" x="179.50000881403685">内因：用户行为分析</text></g></g><g id="minder_node3"><g id="node_expander2" style="cursor: pointer;"><path id="kity_path_44" fill="white" stroke="gray" d="M158.5000084117055,154.5000054165721A6,6,0,1,1,146.5000084117055,154.5000054165721A6,6,0,1,1,158.5000084117055,154.5000054165721"></path><path id="kity_path_45" fill="none" stroke="gray" d="M148.0000084117055,154.5000054165721L157.0000084117055,154.5000054165721"></path></g><path id="node_outline3" fill="rgb(238, 243, 246)" stroke="rgb(115, 161, 191)" d="M162.50000881403685,141.5000054165721h161a3,3,0,0,1,3,3v20a3,3,0,0,1,-3,3h-161a3,3,0,0,1,-3,-3v-20a3,3,0,0,1,3,-3z" stroke-width="1"></path><g id="node_text3" fill="black"><text id="kity_text_41" text-rendering="inherit" font-size="14" dy=".8em" y="145.40000538527966" x="179.50000881403685">外因：外部环境调研</text></g></g><g id="minder_node4"><g id="node_expander3" style="cursor: pointer;" display="none"><path id="kity_path_52" fill="white" stroke="gray" d="M158.5000084117055,205.50000617653131A6,6,0,1,1,146.5000084117055,205.50000617653131A6,6,0,1,1,158.5000084117055,205.50000617653131"></path><path id="kity_path_53" fill="none" stroke="gray"></path></g><path id="node_outline4" fill="rgb(238, 243, 246)" stroke="rgb(115, 161, 191)" d="M162.50000881403685,192.50000617653131h188a3,3,0,0,1,3,3v20a3,3,0,0,1,-3,3h-188a3,3,0,0,1,-3,-3v-20a3,3,0,0,1,3,-3z" stroke-width="1"></path><g id="node_text4" fill="black"><text id="kity_text_49" text-rendering="inherit" font-size="14" dy=".8em" y="196.40000614523888" x="179.50000881403685">问卷调查：验证内因外因</text></g></g><g id="minder_node5"><g id="node_expander4" style="cursor: pointer;" display="none"><path id="kity_path_60" fill="white" stroke="gray" d="M341.500011138618,29.500003553926945A6,6,0,1,1,329.500011138618,29.500003553926945A6,6,0,1,1,341.500011138618,29.500003553926945"></path><path id="kity_path_61" fill="none" stroke="gray"></path></g><path id="node_outline5" fill="none" stroke="none" d="M346.50001130253077,20.500003553926945h48a5,5,0,0,1,5,5v8a5,5,0,0,1,-5,5h-48a5,5,0,0,1,-5,-5v-8a5,5,0,0,1,5,-5z" stroke-width="3"></path><g id="node_text5" fill="black"><text id="kity_text_57" text-rendering="inherit" font-size="12" dy=".8em" y="21.700003527104855" x="346.50001130253077">5W2H法</text></g></g><g id="minder_node7"><g id="node_expander6" style="cursor: pointer;" display="none"><path id="kity_path_76" fill="white" stroke="gray" d="M341.500011138618,55.500003941357136A6,6,0,1,1,329.500011138618,55.500003941357136A6,6,0,1,1,341.500011138618,55.500003941357136"></path><path id="kity_path_77" fill="none" stroke="gray"></path></g><path id="node_outline7" fill="none" stroke="none" d="M346.50001130253077,46.500003941357136h95a5,5,0,0,1,5,5v8a5,5,0,0,1,-5,5h-95a5,5,0,0,1,-5,-5v-8a5,5,0,0,1,5,-5z" stroke-width="3"></path><g id="node_text7" fill="black"><text id="kity_text_73" text-rendering="inherit" font-size="12" dy=".8em" y="47.700003914535046" x="346.50001130253077">流失前N步分析法</text></g></g><g id="minder_node8"><g id="node_expander7" style="cursor: pointer;" display="none"><path id="kity_path_84" fill="white" stroke="gray" d="M341.500011138618,81.50000432878733A6,6,0,1,1,329.500011138618,81.50000432878733A6,6,0,1,1,341.500011138618,81.50000432878733"></path><path id="kity_path_85" fill="none" stroke="gray"></path></g><path id="node_outline8" fill="none" stroke="none" d="M346.50001130253077,72.50000432878733h62a5,5,0,0,1,5,5v8a5,5,0,0,1,-5,5h-62a5,5,0,0,1,-5,-5v-8a5,5,0,0,1,5,-5z" stroke-width="3"></path><g id="node_text8" fill="black"><text id="kity_text_81" text-rendering="inherit" font-size="12" dy=".8em" y="73.70000430196524" x="346.50001130253077">漏斗分析法</text></g></g><g id="minder_node9"><g id="node_expander8" style="cursor: pointer;" display="none"><path id="kity_path_92" fill="white" stroke="gray" d="M341.500011138618,107.50000471621752A6,6,0,1,1,329.500011138618,107.50000471621752A6,6,0,1,1,341.500011138618,107.50000471621752"></path><path id="kity_path_93" fill="none" stroke="gray"></path></g><path id="node_outline9" fill="none" stroke="none" d="M346.50001130253077,98.50000471621752h20a5,5,0,0,1,5,5v8a5,5,0,0,1,-5,5h-20a5,5,0,0,1,-5,-5v-8a5,5,0,0,1,5,-5z" stroke-width="3"></path><g id="node_text9" fill="black"><text id="kity_text_89" text-rendering="inherit" font-size="12" dy=".8em" y="99.70000468939543" x="346.50001130253077">……</text></g></g><g id="minder_node11"><g id="node_expander10" style="cursor: pointer;" display="none"><path id="kity_path_108" fill="white" stroke="gray" d="M342.50001115351915,141.500005222857A6,6,0,1,1,330.50001115351915,141.500005222857A6,6,0,1,1,342.50001115351915,141.500005222857"></path><path id="kity_path_109" fill="none" stroke="gray"></path></g><path id="node_outline11" fill="none" stroke="none" d="M347.5000113174319,132.500005222857h124a5,5,0,0,1,5,5v8a5,5,0,0,1,-5,5h-124a5,5,0,0,1,-5,-5v-8a5,5,0,0,1,5,-5z" stroke-width="3"></path><g id="node_text11" fill="black"><text id="kity_text_105" text-rendering="inherit" font-size="12" dy=".8em" y="133.7000051960349" x="347.5000113174319">4p理论、波特五力模型</text></g></g><g id="minder_node12"><g id="node_expander11" style="cursor: pointer;" display="none"><path id="kity_path_116" fill="white" stroke="gray" d="M342.50001115351915,167.5000056102872A6,6,0,1,1,330.50001115351915,167.5000056102872A6,6,0,1,1,342.50001115351915,167.5000056102872"></path><path id="kity_path_117" fill="none" stroke="gray"></path></g><path id="node_outline12" fill="none" stroke="none" d="M347.5000113174319,158.5000056102872h173a5,5,0,0,1,5,5v8a5,5,0,0,1,-5,5h-173a5,5,0,0,1,-5,-5v-8a5,5,0,0,1,5,-5z" stroke-width="3"></path><g id="node_text12" fill="black"><text id="kity_text_113" text-rendering="inherit" font-size="12" dy=".8em" y="159.7000055834651" x="347.5000113174319">PEST、生命周期分析、竞品分析</text></g></g></g></g></svg>