<svg id="kity_svg_6" xmlns="http://www.w3.org/2000/svg" xmlns:xlink="http://www.w3.org/1999/xlink" version="1.1" width="520" height="272" style="background: rgb(251, 251, 251); visibility: visible;" viewBox="0 0 520 272"><defs id="kity_defs_7"><linearGradient id="kity_linearGradient_17" x1="0" y1="0" x2="0" y2="1"><stop id="kity_stop_18" offset="0" stop-color="rgb(255, 255, 255)"></stop><stop id="kity_stop_19" offset="1" stop-color="rgb(204, 204, 204)"></stop></linearGradient><marker id="kity_marker_2" orient="auto" refX="6" refY="0" viewBox="-7 -7 14 14" markerWidth="7" markerHeight="7" markerUnits="userSpaceOnUse"><path id="kity_path_3" fill="rgb(115, 161, 191)" stroke="none" d="M6,0A6,6,0,1,1,-6,0A6,6,0,1,1,6,0"></path></marker></defs><g id="kity_g_8"><g id="minder1" text-rendering="optimize-speed"><g id="minder_connect_group1"><path id="kity_path_31" fill="none" stroke="rgb(115, 161, 191)" stroke-width="1" d="M105.00000626593828,136.50000505894423A100.5,94,0,0,1,205.50000626593828,42.500005058944225"></path><path id="kity_path_39" fill="none" stroke="rgb(115, 161, 191)" stroke-width="1" d="M105.00000626593828,136.50000505894423A100.5,21,0,0,1,205.50000626593828,115.50000505894423"></path><path id="kity_path_47" fill="none" stroke="rgb(115, 161, 191)" stroke-width="1" d="M105.00000626593828,136.50000505894423A100.5,43,0,0,0,205.50000626593828,179.50000505894423"></path><path id="kity_path_55" fill="none" stroke="rgb(115, 161, 191)" stroke-width="1" d="M105.00000626593828,136.50000505894423A100.5,94,0,0,0,205.50000626593828,230.50000505894423"></path><path id="kity_path_63" fill="none" stroke="rgb(115, 161, 191)" stroke-width="1" d="M387.5000062659383,42.500005058944225C395.5000062659383,42.500005058944225,395.5000062659383,29.500005058944225,403.5000062659383,29.500005058944225"></path><path id="kity_path_71" fill="none" stroke="rgb(115, 161, 191)" stroke-width="1" d="M387.5000062659383,42.500005058944225C395.5000062659383,42.500005058944225,395.5000062659383,55.500005058944225,403.5000062659383,55.500005058944225"></path><path id="kity_path_79" fill="none" stroke="rgb(115, 161, 191)" stroke-width="1" d="M401.5000062659383,115.50000505894423C409.5000062659383,115.50000505894423,409.5000062659383,89.50000505894423,417.5000062659383,89.50000505894423"></path><path id="kity_path_87" fill="none" stroke="rgb(115, 161, 191)" stroke-width="1" d="M401.5000062659383,115.50000505894423C409.5000062659383,115.50000505894423,409.5000062659383,115.50000505894423,417.5000062659383,115.50000505894423"></path><path id="kity_path_95" fill="none" stroke="rgb(115, 161, 191)" stroke-width="1" d="M401.5000062659383,115.50000505894423C409.5000062659383,115.50000505894423,409.5000062659383,141.50000505894423,417.5000062659383,141.50000505894423"></path><path id="kity_path_111" fill="none" stroke="rgb(115, 161, 191)" stroke-width="1" d="M359.5000062659383,179.50000505894423C367.5000062659383,179.50000505894423,367.5000062659383,179.50000505894423,375.5000062659383,179.50000505894423"></path><path id="kity_path_119" fill="none" stroke="rgb(115, 161, 191)" stroke-width="1" d="M402.5000062659383,230.50000505894423C410.5000062659383,230.50000505894423,410.5000062659383,217.50000505894423,418.5000062659383,217.50000505894423"></path><path id="kity_path_127" fill="none" stroke="rgb(115, 161, 191)" stroke-width="1" d="M402.5000062659383,230.50000505894423C410.5000062659383,230.50000505894423,410.5000062659383,243.50000505894423,418.5000062659383,243.50000505894423"></path></g><g id="minder_node1"><path id="node_outline1" fill="rgb(115, 161, 191)" stroke="rgb(115, 161, 191)" d="M25.500006265938282,122.50000505894423h159a5,5,0,0,1,5,5v18a5,5,0,0,1,-5,5h-159a5,5,0,0,1,-5,-5v-18a5,5,0,0,1,5,-5z" stroke-width="3"></path><g id="node_text1" fill="white"><text id="kity_text_22" text-rendering="inherit" font-size="16" dy=".8em" y="126.10000502318144" x="32.50000626593828">用户转化与付费分析</text></g></g><g id="kity_g_12"><path id="kity_path_13" fill="none" stroke="none" d="M32.50000626593828,136.50000505894423h0v0h0z"></path></g><g id="kity_g_14"><path id="kity_path_15" fill="none" stroke="none" d="M32.50000626593828,136.50000505894423h0v0h0z"></path><path id="kity_path_16" fill="none" stroke="none"></path></g><g id="minder_node2"><g id="node_expander1" style="cursor: pointer;"><path id="kity_path_36" fill="white" stroke="gray" d="M206.50000876933336,42.50000365823507A6,6,0,1,1,194.50000876933336,42.50000365823507A6,6,0,1,1,206.50000876933336,42.50000365823507"></path><path id="kity_path_37" fill="none" stroke="gray" d="M196.00000876933336,42.50000365823507L205.00000876933336,42.50000365823507"></path></g><path id="node_outline2" fill="rgb(238, 243, 246)" stroke="rgb(115, 161, 191)" d="M210.50000917166471,29.500003658235073h174a3,3,0,0,1,3,3v20a3,3,0,0,1,-3,3h-174a3,3,0,0,1,-3,-3v-20a3,3,0,0,1,3,-3z" stroke-width="1"></path><g id="node_text2" fill="black"><text id="kity_text_33" text-rendering="inherit" font-size="14" dy=".8em" y="33.400003626942635" x="227.50000917166471">预估不同方案的转化率</text></g></g><g id="minder_node3"><g id="node_expander2" style="cursor: pointer;"><path id="kity_path_44" fill="white" stroke="gray" d="M206.50000876933336,115.50000474601984A6,6,0,1,1,194.50000876933336,115.50000474601984A6,6,0,1,1,206.50000876933336,115.50000474601984"></path><path id="kity_path_45" fill="none" stroke="gray" d="M196.00000876933336,115.50000474601984L205.00000876933336,115.50000474601984"></path></g><path id="node_outline3" fill="rgb(238, 243, 246)" stroke="rgb(115, 161, 191)" d="M210.50000917166471,102.50000474601984h188a3,3,0,0,1,3,3v20a3,3,0,0,1,-3,3h-188a3,3,0,0,1,-3,-3v-20a3,3,0,0,1,3,-3z" stroke-width="1"></path><g id="node_text3" fill="black"><text id="kity_text_41" text-rendering="inherit" font-size="14" dy=".8em" y="106.4000047147274" x="227.50000917166471">用户画像与用户分层运营</text></g></g><g id="minder_node4"><g id="node_expander3" style="cursor: pointer;"><path id="kity_path_52" fill="white" stroke="gray" d="M206.50000876933336,179.50000569969416A6,6,0,1,1,194.50000876933336,179.50000569969416A6,6,0,1,1,206.50000876933336,179.50000569969416"></path><path id="kity_path_53" fill="none" stroke="gray" d="M196.00000876933336,179.50000569969416L205.00000876933336,179.50000569969416"></path></g><path id="node_outline4" fill="rgb(238, 243, 246)" stroke="rgb(115, 161, 191)" d="M210.50000917166471,166.50000569969416h146a3,3,0,0,1,3,3v20a3,3,0,0,1,-3,3h-146a3,3,0,0,1,-3,-3v-20a3,3,0,0,1,3,-3z" stroke-width="1"></path><g id="node_text4" fill="black"><text id="kity_text_49" text-rendering="inherit" font-size="14" dy=".8em" y="170.40000566840172" x="227.50000917166471">用户转化路径分析</text></g></g><g id="minder_node5"><g id="node_expander4" style="cursor: pointer;"><path id="kity_path_60" fill="white" stroke="gray" d="M206.50000876933336,230.50000645965338A6,6,0,1,1,194.50000876933336,230.50000645965338A6,6,0,1,1,206.50000876933336,230.50000645965338"></path><path id="kity_path_61" fill="none" stroke="gray" d="M196.00000876933336,230.50000645965338L205.00000876933336,230.50000645965338"></path></g><path id="node_outline5" fill="rgb(238, 243, 246)" stroke="rgb(115, 161, 191)" d="M210.50000917166471,217.50000645965338h189a3,3,0,0,1,3,3v20a3,3,0,0,1,-3,3h-189a3,3,0,0,1,-3,-3v-20a3,3,0,0,1,3,-3z" stroke-width="1"></path><g id="node_text5" fill="black"><text id="kity_text_57" text-rendering="inherit" font-size="14" dy=".8em" y="221.40000642836094" x="227.50000917166471">预估用户生命周期总价值</text></g></g><g id="minder_node6"><g id="node_expander5" style="cursor: pointer;" display="none"><path id="kity_path_68" fill="white" stroke="gray" d="M403.5000117048621,29.500003464519978A6,6,0,1,1,391.5000117048621,29.500003464519978A6,6,0,1,1,403.5000117048621,29.500003464519978"></path><path id="kity_path_69" fill="none" stroke="gray"></path></g><path id="node_outline6" fill="none" stroke="none" d="M408.5000118687749,20.500003464519978h49a5,5,0,0,1,5,5v8a5,5,0,0,1,-5,5h-49a5,5,0,0,1,-5,-5v-8a5,5,0,0,1,5,-5z" stroke-width="3"></path><g id="node_text6" fill="black"><text id="kity_text_65" text-rendering="inherit" font-size="12" dy=".8em" y="21.700003437697887" x="408.5000118687749">用户画像</text></g></g><g id="minder_node7"><g id="node_expander6" style="cursor: pointer;" display="none"><path id="kity_path_76" fill="white" stroke="gray" d="M403.5000117048621,55.50000385195017A6,6,0,1,1,391.5000117048621,55.50000385195017A6,6,0,1,1,403.5000117048621,55.50000385195017"></path><path id="kity_path_77" fill="none" stroke="gray"></path></g><path id="node_outline7" fill="none" stroke="none" d="M408.5000118687749,46.50000385195017h61a5,5,0,0,1,5,5v8a5,5,0,0,1,-5,5h-61a5,5,0,0,1,-5,-5v-8a5,5,0,0,1,5,-5z" stroke-width="3"></path><g id="node_text7" fill="black"><text id="kity_text_73" text-rendering="inherit" font-size="12" dy=".8em" y="47.70000382512808" x="408.5000118687749">贝叶斯概率</text></g></g><g id="minder_node8"><g id="node_expander7" style="cursor: pointer;" display="none"><path id="kity_path_84" fill="white" stroke="gray" d="M417.5000119134784,89.50000435858965A6,6,0,1,1,405.5000119134784,89.50000435858965A6,6,0,1,1,417.5000119134784,89.50000435858965"></path><path id="kity_path_85" fill="none" stroke="gray"></path></g><path id="node_outline8" fill="none" stroke="none" d="M422.50001207739115,80.50000435858965h73a5,5,0,0,1,5,5v8a5,5,0,0,1,-5,5h-73a5,5,0,0,1,-5,-5v-8a5,5,0,0,1,5,-5z" stroke-width="3"></path><g id="node_text8" fill="black"><text id="kity_text_81" text-rendering="inherit" font-size="12" dy=".8em" y="81.70000433176756" x="422.50001207739115">营销增益模型</text></g></g><g id="minder_node9"><g id="node_expander8" style="cursor: pointer;" display="none"><path id="kity_path_92" fill="white" stroke="gray" d="M417.5000119134784,115.50000474601984A6,6,0,1,1,405.5000119134784,115.50000474601984A6,6,0,1,1,417.5000119134784,115.50000474601984"></path><path id="kity_path_93" fill="none" stroke="gray"></path></g><path id="node_outline9" fill="none" stroke="none" d="M422.50001207739115,106.50000474601984h49a5,5,0,0,1,5,5v8a5,5,0,0,1,-5,5h-49a5,5,0,0,1,-5,-5v-8a5,5,0,0,1,5,-5z" stroke-width="3"></path><g id="node_text9" fill="black"><text id="kity_text_89" text-rendering="inherit" font-size="12" dy=".8em" y="107.70000471919775" x="422.50001207739115">用户标签</text></g></g><g id="minder_node10"><g id="node_expander9" style="cursor: pointer;" display="none"><path id="kity_path_100" fill="white" stroke="gray" d="M417.5000119134784,141.50000513345003A6,6,0,1,1,405.5000119134784,141.50000513345003A6,6,0,1,1,417.5000119134784,141.50000513345003"></path><path id="kity_path_101" fill="none" stroke="gray"></path></g><path id="node_outline10" fill="none" stroke="none" d="M422.50001207739115,132.50000513345003h51a5,5,0,0,1,5,5v8a5,5,0,0,1,-5,5h-51a5,5,0,0,1,-5,-5v-8a5,5,0,0,1,5,-5z" stroke-width="3"></path><g id="node_text10" fill="black"><text id="kity_text_97" text-rendering="inherit" font-size="12" dy=".8em" y="133.70000510662794" x="422.50001207739115">RFM模型</text></g></g><g id="minder_node12"><g id="node_expander11" style="cursor: pointer;" display="none"><path id="kity_path_116" fill="white" stroke="gray" d="M375.5000112876296,179.50000569969416A6,6,0,1,1,363.5000112876296,179.50000569969416A6,6,0,1,1,375.5000112876296,179.50000569969416"></path><path id="kity_path_117" fill="none" stroke="gray"></path></g><path id="node_outline12" fill="none" stroke="none" d="M380.5000114515424,170.50000569969416h72a5,5,0,0,1,5,5v8a5,5,0,0,1,-5,5h-72a5,5,0,0,1,-5,-5v-8a5,5,0,0,1,5,-5z" stroke-width="3"></path><g id="node_text12" fill="black"><text id="kity_text_113" text-rendering="inherit" font-size="12" dy=".8em" y="171.70000567287207" x="380.5000114515424">用户行为漏斗</text></g></g><g id="minder_node13"><g id="node_expander12" style="cursor: pointer;" display="none"><path id="kity_path_124" fill="white" stroke="gray" d="M418.50001192837954,217.50000626593828A6,6,0,1,1,406.50001192837954,217.50000626593828A6,6,0,1,1,418.50001192837954,217.50000626593828"></path><path id="kity_path_125" fill="none" stroke="gray"></path></g><path id="node_outline13" fill="none" stroke="none" d="M423.5000120922923,208.50000626593828h49a5,5,0,0,1,5,5v8a5,5,0,0,1,-5,5h-49a5,5,0,0,1,-5,-5v-8a5,5,0,0,1,5,-5z" stroke-width="3"></path><g id="node_text13" fill="black"><text id="kity_text_121" text-rendering="inherit" font-size="12" dy=".8em" y="209.7000062391162" x="423.5000120922923">生存分析</text></g></g><g id="minder_node14"><g id="node_expander13" style="cursor: pointer;" display="none"><path id="kity_path_132" fill="white" stroke="gray" d="M418.50001192837954,243.50000665336847A6,6,0,1,1,406.50001192837954,243.50000665336847A6,6,0,1,1,418.50001192837954,243.50000665336847"></path><path id="kity_path_133" fill="none" stroke="gray"></path></g><path id="node_outline14" fill="none" stroke="none" d="M423.5000120922923,234.50000665336847h49a5,5,0,0,1,5,5v8a5,5,0,0,1,-5,5h-49a5,5,0,0,1,-5,-5v-8a5,5,0,0,1,5,-5z" stroke-width="3"></path><g id="node_text14" fill="black"><text id="kity_text_129" text-rendering="inherit" font-size="12" dy=".8em" y="235.70000662654638" x="423.5000120922923">机器学习</text></g></g></g></g></svg>