<svg id="kity_svg_6" xmlns="http://www.w3.org/2000/svg" xmlns:xlink="http://www.w3.org/1999/xlink" version="1.1" width="440" height="809" style="background: rgb(251, 251, 251); visibility: visible;" viewBox="0 0 440 809"><defs id="kity_defs_7"><linearGradient id="kity_linearGradient_17" x1="0" y1="0" x2="0" y2="1"><stop id="kity_stop_18" offset="0" stop-color="rgb(255, 255, 255)"></stop><stop id="kity_stop_19" offset="1" stop-color="rgb(204, 204, 204)"></stop></linearGradient><marker id="kity_marker_2" orient="auto" refX="6" refY="0" viewBox="-7 -7 14 14" markerWidth="7" markerHeight="7" markerUnits="userSpaceOnUse"><path id="kity_path_3" fill="rgb(115, 161, 191)" stroke="none" d="M6,0A6,6,0,1,1,-6,0A6,6,0,1,1,6,0"></path></marker></defs><g id="kity_g_8"><g id="minder1" text-rendering="optimize-speed"><g id="minder_connect_group1"><path id="kity_path_39" fill="none" stroke="rgb(115, 161, 191)" stroke-width="1" d="M81.00000562518835,452.50000640004873A76.5,262,0,0,1,157.50000562518835,190.50000640004873"></path><path id="kity_path_47" fill="none" stroke="rgb(115, 161, 191)" stroke-width="1" d="M81.00000562518835,452.50000640004873A76.5,27,0,0,1,157.50000562518835,425.50000640004873"></path><path id="kity_path_55" fill="none" stroke="rgb(115, 161, 191)" stroke-width="1" d="M81.00000562518835,452.50000640004873A76.5,111,0,0,0,157.50000562518835,563.5000064000487"></path><path id="kity_path_63" fill="none" stroke="rgb(115, 161, 191)" stroke-width="1" d="M81.00000562518835,452.50000640004873A76.5,262,0,0,0,157.50000562518835,714.5000064000487"></path><path id="kity_path_71" fill="none" stroke="rgb(115, 161, 191)" stroke-width="1" d="M257.50000562518835,190.50000640004873C265.50000562518835,190.50000640004873,265.50000562518835,67.50000640004873,273.50000562518835,67.50000640004873"></path><path id="kity_path_79" fill="none" stroke="rgb(115, 161, 191)" stroke-width="1" d="M257.50000562518835,190.50000640004873C265.50000562518835,190.50000640004873,265.50000562518835,171.50000640004873,273.50000562518835,171.50000640004873"></path><path id="kity_path_87" fill="none" stroke="rgb(115, 161, 191)" stroke-width="1" d="M257.50000562518835,190.50000640004873C265.50000562518835,190.50000640004873,265.50000562518835,262.50000640004873,273.50000562518835,262.50000640004873"></path><path id="kity_path_103" fill="none" stroke="rgb(115, 161, 191)" stroke-width="1" d="M333.50000562518835,67.50000640004873C341.50000562518835,67.50000640004873,341.50000562518835,28.500006400048733,349.50000562518835,28.500006400048733"></path><path id="kity_path_111" fill="none" stroke="rgb(115, 161, 191)" stroke-width="1" d="M333.50000562518835,67.50000640004873C341.50000562518835,67.50000640004873,341.50000562518835,54.50000640004873,349.50000562518835,54.50000640004873"></path><path id="kity_path_119" fill="none" stroke="rgb(115, 161, 191)" stroke-width="1" d="M333.50000562518835,67.50000640004873C341.50000562518835,67.50000640004873,341.50000562518835,80.50000640004873,349.50000562518835,80.50000640004873"></path><path id="kity_path_135" fill="none" stroke="rgb(115, 161, 191)" stroke-width="1" d="M333.50000562518835,171.50000640004873C341.50000562518835,171.50000640004873,341.50000562518835,132.50000640004873,349.50000562518835,132.50000640004873"></path><path id="kity_path_143" fill="none" stroke="rgb(115, 161, 191)" stroke-width="1" d="M333.50000562518835,171.50000640004873C341.50000562518835,171.50000640004873,341.50000562518835,158.50000640004873,349.50000562518835,158.50000640004873"></path><path id="kity_path_151" fill="none" stroke="rgb(115, 161, 191)" stroke-width="1" d="M333.50000562518835,171.50000640004873C341.50000562518835,171.50000640004873,341.50000562518835,184.50000640004873,349.50000562518835,184.50000640004873"></path><path id="kity_path_159" fill="none" stroke="rgb(115, 161, 191)" stroke-width="1" d="M333.50000562518835,262.50000640004873C341.50000562518835,262.50000640004873,341.50000562518835,236.50000640004873,349.50000562518835,236.50000640004873"></path><path id="kity_path_167" fill="none" stroke="rgb(115, 161, 191)" stroke-width="1" d="M333.50000562518835,262.50000640004873C341.50000562518835,262.50000640004873,341.50000562518835,262.50000640004873,349.50000562518835,262.50000640004873"></path><path id="kity_path_175" fill="none" stroke="rgb(115, 161, 191)" stroke-width="1" d="M256.50000562518835,425.50000640004873C264.50000562518835,425.50000640004873,264.50000562518835,373.50000640004873,272.50000562518835,373.50000640004873"></path><path id="kity_path_183" fill="none" stroke="rgb(115, 161, 191)" stroke-width="1" d="M256.50000562518835,425.50000640004873C264.50000562518835,425.50000640004873,264.50000562518835,438.50000640004873,272.50000562518835,438.50000640004873"></path><path id="kity_path_191" fill="none" stroke="rgb(115, 161, 191)" stroke-width="1" d="M331.50000562518835,373.50000640004873C339.50000562518835,373.50000640004873,339.50000562518835,347.50000640004873,347.50000562518835,347.50000640004873"></path><path id="kity_path_199" fill="none" stroke="rgb(115, 161, 191)" stroke-width="1" d="M331.50000562518835,373.50000640004873C339.50000562518835,373.50000640004873,339.50000562518835,373.50000640004873,347.50000562518835,373.50000640004873"></path><path id="kity_path_207" fill="none" stroke="rgb(115, 161, 191)" stroke-width="1" d="M331.50000562518835,438.50000640004873C339.50000562518835,438.50000640004873,339.50000562518835,425.50000640004873,347.50000562518835,425.50000640004873"></path><path id="kity_path_223" fill="none" stroke="rgb(115, 161, 191)" stroke-width="1" d="M256.50000562518835,563.5000064000487C264.50000562518835,563.5000064000487,264.50000562518835,537.5000064000487,272.50000562518835,537.5000064000487"></path><path id="kity_path_231" fill="none" stroke="rgb(115, 161, 191)" stroke-width="1" d="M256.50000562518835,563.5000064000487C264.50000562518835,563.5000064000487,264.50000562518835,589.5000064000487,272.50000562518835,589.5000064000487"></path><path id="kity_path_239" fill="none" stroke="rgb(115, 161, 191)" stroke-width="1" d="M331.50000562518835,537.5000064000487C339.50000562518835,537.5000064000487,339.50000562518835,511.50000640004873,347.50000562518835,511.50000640004873"></path><path id="kity_path_247" fill="none" stroke="rgb(115, 161, 191)" stroke-width="1" d="M331.50000562518835,537.5000064000487C339.50000562518835,537.5000064000487,339.50000562518835,537.5000064000487,347.50000562518835,537.5000064000487"></path><path id="kity_path_255" fill="none" stroke="rgb(115, 161, 191)" stroke-width="1" d="M331.50000562518835,438.50000640004873C339.50000562518835,438.50000640004873,339.50000562518835,451.50000640004873,347.50000562518835,451.50000640004873"></path><path id="kity_path_263" fill="none" stroke="rgb(115, 161, 191)" stroke-width="1" d="M331.50000562518835,537.5000064000487C339.50000562518835,537.5000064000487,339.50000562518835,563.5000064000487,347.50000562518835,563.5000064000487"></path><path id="kity_path_271" fill="none" stroke="rgb(115, 161, 191)" stroke-width="1" d="M331.50000562518835,373.50000640004873C339.50000562518835,373.50000640004873,339.50000562518835,399.50000640004873,347.50000562518835,399.50000640004873"></path><path id="kity_path_279" fill="none" stroke="rgb(115, 161, 191)" stroke-width="1" d="M333.50000562518835,262.50000640004873C341.50000562518835,262.50000640004873,341.50000562518835,288.50000640004873,349.50000562518835,288.50000640004873"></path><path id="kity_path_287" fill="none" stroke="rgb(115, 161, 191)" stroke-width="1" d="M333.50000562518835,171.50000640004873C341.50000562518835,171.50000640004873,341.50000562518835,210.50000640004873,349.50000562518835,210.50000640004873"></path><path id="kity_path_295" fill="none" stroke="rgb(115, 161, 191)" stroke-width="1" d="M333.50000562518835,67.50000640004873C341.50000562518835,67.50000640004873,341.50000562518835,106.50000640004873,349.50000562518835,106.50000640004873"></path><path id="kity_path_303" fill="none" stroke="rgb(115, 161, 191)" stroke-width="1" d="M257.50000562518835,190.50000640004873C265.50000562518835,190.50000640004873,265.50000562518835,314.50000640004873,273.50000562518835,314.50000640004873"></path><path id="kity_path_311" fill="none" stroke="rgb(115, 161, 191)" stroke-width="1" d="M256.50000562518835,425.50000640004873C264.50000562518835,425.50000640004873,264.50000562518835,477.50000640004873,272.50000562518835,477.50000640004873"></path><path id="kity_path_319" fill="none" stroke="rgb(115, 161, 191)" stroke-width="1" d="M256.50000562518835,714.5000064000487C264.50000562518835,714.5000064000487,264.50000562518835,649.5000064000487,272.50000562518835,649.5000064000487"></path><path id="kity_path_327" fill="none" stroke="rgb(115, 161, 191)" stroke-width="1" d="M256.50000562518835,714.5000064000487C264.50000562518835,714.5000064000487,264.50000562518835,727.5000064000487,272.50000562518835,727.5000064000487"></path><path id="kity_path_335" fill="none" stroke="rgb(115, 161, 191)" stroke-width="1" d="M256.50000562518835,714.5000064000487C264.50000562518835,714.5000064000487,264.50000562518835,779.5000064000487,272.50000562518835,779.5000064000487"></path><path id="kity_path_343" fill="none" stroke="rgb(115, 161, 191)" stroke-width="1" d="M330.50000562518835,649.5000064000487C338.50000562518835,649.5000064000487,338.50000562518835,623.5000064000487,346.50000562518835,623.5000064000487"></path><path id="kity_path_351" fill="none" stroke="rgb(115, 161, 191)" stroke-width="1" d="M330.50000562518835,649.5000064000487C338.50000562518835,649.5000064000487,338.50000562518835,649.5000064000487,346.50000562518835,649.5000064000487"></path><path id="kity_path_367" fill="none" stroke="rgb(115, 161, 191)" stroke-width="1" d="M331.50000562518835,727.5000064000487C339.50000562518835,727.5000064000487,339.50000562518835,701.5000064000487,347.50000562518835,701.5000064000487"></path><path id="kity_path_375" fill="none" stroke="rgb(115, 161, 191)" stroke-width="1" d="M331.50000562518835,727.5000064000487C339.50000562518835,727.5000064000487,339.50000562518835,727.5000064000487,347.50000562518835,727.5000064000487"></path><path id="kity_path_383" fill="none" stroke="rgb(115, 161, 191)" stroke-width="1" d="M331.50000562518835,727.5000064000487C339.50000562518835,727.5000064000487,339.50000562518835,753.5000064000487,347.50000562518835,753.5000064000487"></path><path id="kity_path_391" fill="none" stroke="rgb(115, 161, 191)" stroke-width="1" d="M330.50000562518835,649.5000064000487C338.50000562518835,649.5000064000487,338.50000562518835,675.5000064000487,346.50000562518835,675.5000064000487"></path></g><g id="minder_node1"><path id="node_outline1" fill="rgb(115, 161, 191)" stroke="rgb(115, 161, 191)" d="M25.50000562518835,438.50000640004873h111a5,5,0,0,1,5,5v18a5,5,0,0,1,-5,5h-111a5,5,0,0,1,-5,-5v-18a5,5,0,0,1,5,-5z" stroke-width="3"></path><g id="node_text1" fill="#ffffff"><text id="kity_text_22" text-rendering="inherit" font-size="16" dy=".8em" y="442.10000636428595" font-weight="bold" x="32.50000562518835">用户数据标签</text></g></g><g id="kity_g_12"><path id="kity_path_13" fill="none" stroke="none" d="M32.50000562518835,452.50000640004873h0v0h0z"></path></g><g id="kity_g_14"><path id="kity_path_15" fill="none" stroke="none" d="M32.50000562518835,452.50000640004873h0v0h0z"></path><path id="kity_path_16" fill="none" stroke="none"></path></g><g id="minder_node3"><g id="node_expander2" style="cursor: pointer;"><path id="kity_path_44" fill="white" stroke="gray" d="M158.5000074133277,190.5000024959445A6,6,0,1,1,146.5000074133277,190.5000024959445A6,6,0,1,1,158.5000074133277,190.5000024959445"></path><path id="kity_path_45" fill="none" stroke="gray" d="M148.0000074133277,190.5000024959445L157.0000074133277,190.5000024959445"></path></g><path id="node_outline3" fill="rgb(238, 243, 246)" stroke="rgb(115, 161, 191)" d="M162.50000781565905,177.5000024959445h92a3,3,0,0,1,3,3v20a3,3,0,0,1,-3,3h-92a3,3,0,0,1,-3,-3v-20a3,3,0,0,1,3,-3z" stroke-width="1"></path><g id="node_text3" fill="black"><text id="kity_text_41" text-rendering="inherit" font-size="14" dy=".8em" y="181.40000246465206" x="179.50000781565905">社会属性</text></g></g><g id="minder_node4"><g id="node_expander3" style="cursor: pointer;"><path id="kity_path_52" fill="white" stroke="gray" d="M158.5000074133277,425.5000059977174A6,6,0,1,1,146.5000074133277,425.5000059977174A6,6,0,1,1,158.5000074133277,425.5000059977174"></path><path id="kity_path_53" fill="none" stroke="gray" d="M148.0000074133277,425.5000059977174L157.0000074133277,425.5000059977174"></path></g><path id="node_outline4" fill="rgb(238, 243, 246)" stroke="rgb(115, 161, 191)" d="M162.50000781565905,412.5000059977174h91a3,3,0,0,1,3,3v20a3,3,0,0,1,-3,3h-91a3,3,0,0,1,-3,-3v-20a3,3,0,0,1,3,-3z" stroke-width="1"></path><g id="node_text4" fill="black"><text id="kity_text_49" text-rendering="inherit" font-size="14" dy=".8em" y="416.40000596642494" x="179.50000781565905">商业属性</text></g></g><g id="minder_node5"><g id="node_expander4" style="cursor: pointer;"><path id="kity_path_60" fill="white" stroke="gray" d="M158.5000074133277,563.5000080540776A6,6,0,1,1,146.5000074133277,563.5000080540776A6,6,0,1,1,158.5000074133277,563.5000080540776"></path><path id="kity_path_61" fill="none" stroke="gray" d="M148.0000074133277,563.5000080540776L157.0000074133277,563.5000080540776"></path></g><path id="node_outline5" fill="rgb(238, 243, 246)" stroke="rgb(115, 161, 191)" d="M162.50000781565905,550.5000080540776h91a3,3,0,0,1,3,3v20a3,3,0,0,1,-3,3h-91a3,3,0,0,1,-3,-3v-20a3,3,0,0,1,3,-3z" stroke-width="1"></path><g id="node_text5" fill="black"><text id="kity_text_57" text-rendering="inherit" font-size="14" dy=".8em" y="554.4000080227852" x="179.50000781565905">内容属性</text></g></g><g id="minder_node6"><g id="node_expander5" style="cursor: pointer;"><path id="kity_path_68" fill="white" stroke="gray" d="M158.5000074133277,714.500010304153A6,6,0,1,1,146.5000074133277,714.500010304153A6,6,0,1,1,158.5000074133277,714.500010304153"></path><path id="kity_path_69" fill="none" stroke="gray" d="M148.0000074133277,714.500010304153L157.0000074133277,714.500010304153"></path></g><path id="node_outline6" fill="rgb(238, 243, 246)" stroke="rgb(115, 161, 191)" d="M162.50000781565905,701.500010304153h91a3,3,0,0,1,3,3v20a3,3,0,0,1,-3,3h-91a3,3,0,0,1,-3,-3v-20a3,3,0,0,1,3,-3z" stroke-width="1"></path><g id="node_text6" fill="black"><text id="kity_text_65" text-rendering="inherit" font-size="14" dy=".8em" y="705.4000102728605" x="179.50000781565905">行为属性</text></g></g><g id="minder_node7"><g id="node_expander6" style="cursor: pointer;"><path id="kity_path_76" fill="white" stroke="gray" d="M273.50000912696123,67.50000066310167A6,6,0,1,1,261.50000912696123,67.50000066310167A6,6,0,1,1,273.50000912696123,67.50000066310167"></path><path id="kity_path_77" fill="none" stroke="gray" d="M263.00000912696123,67.50000066310167L272.00000912696123,67.50000066310167"></path></g><path id="node_outline7" fill="none" stroke="none" d="M278.500009290874,58.50000066310167h50a5,5,0,0,1,5,5v8a5,5,0,0,1,-5,5h-50a5,5,0,0,1,-5,-5v-8a5,5,0,0,1,5,-5z" stroke-width="3"></path><g id="node_text7" fill="black"><text id="kity_text_73" text-rendering="inherit" font-size="12" dy=".8em" y="59.70000063627958" x="278.500009290874">基础信息</text></g></g><g id="minder_node8"><g id="node_expander7" style="cursor: pointer;"><path id="kity_path_84" fill="white" stroke="gray" d="M273.50000912696123,171.50000221282244A6,6,0,1,1,261.50000912696123,171.50000221282244A6,6,0,1,1,273.50000912696123,171.50000221282244"></path><path id="kity_path_85" fill="none" stroke="gray" d="M263.00000912696123,171.50000221282244L272.00000912696123,171.50000221282244"></path></g><path id="node_outline8" fill="none" stroke="none" d="M278.500009290874,162.50000221282244h50a5,5,0,0,1,5,5v8a5,5,0,0,1,-5,5h-50a5,5,0,0,1,-5,-5v-8a5,5,0,0,1,5,-5z" stroke-width="3"></path><g id="node_text8" fill="black"><text id="kity_text_81" text-rendering="inherit" font-size="12" dy=".8em" y="163.70000218600035" x="278.500009290874">位置信息</text></g></g><g id="minder_node9"><g id="node_expander8" style="cursor: pointer;"><path id="kity_path_92" fill="white" stroke="gray" d="M273.50000912696123,262.5000035688281A6,6,0,1,1,261.50000912696123,262.5000035688281A6,6,0,1,1,273.50000912696123,262.5000035688281"></path><path id="kity_path_93" fill="none" stroke="gray" d="M263.00000912696123,262.5000035688281L272.00000912696123,262.5000035688281"></path></g><path id="node_outline9" fill="none" stroke="none" d="M278.500009290874,253.5000035688281h50a5,5,0,0,1,5,5v8a5,5,0,0,1,-5,5h-50a5,5,0,0,1,-5,-5v-8a5,5,0,0,1,5,-5z" stroke-width="3"></path><g id="node_text9" fill="black"><text id="kity_text_89" text-rendering="inherit" font-size="12" dy=".8em" y="254.70000354200602" x="278.500009290874">人群属性</text></g></g><g id="minder_node11"><g id="node_expander10" style="cursor: pointer;" display="none"><path id="kity_path_108" fill="white" stroke="gray" d="M349.5000102594495,28.500000081956387A6,6,0,1,1,337.5000102594495,28.500000081956387A6,6,0,1,1,349.5000102594495,28.500000081956387"></path><path id="kity_path_109" fill="none" stroke="gray"></path></g><path id="node_outline11" fill="none" stroke="none" d="M354.50001042336226,19.500000081956387h25a5,5,0,0,1,5,5v8a5,5,0,0,1,-5,5h-25a5,5,0,0,1,-5,-5v-8a5,5,0,0,1,5,-5z" stroke-width="3"></path><g id="node_text11" fill="black"><text id="kity_text_105" text-rendering="inherit" font-size="12" dy=".8em" y="20.700000055134296" x="354.50001042336226">性别</text></g></g><g id="minder_node12"><g id="node_expander11" style="cursor: pointer;" display="none"><path id="kity_path_116" fill="white" stroke="gray" d="M349.5000102594495,54.50000046938658A6,6,0,1,1,337.5000102594495,54.50000046938658A6,6,0,1,1,349.5000102594495,54.50000046938658"></path><path id="kity_path_117" fill="none" stroke="gray"></path></g><path id="node_outline12" fill="none" stroke="none" d="M354.50001042336226,45.50000046938658h26a5,5,0,0,1,5,5v8a5,5,0,0,1,-5,5h-26a5,5,0,0,1,-5,-5v-8a5,5,0,0,1,5,-5z" stroke-width="3"></path><g id="node_text12" fill="black"><text id="kity_text_113" text-rendering="inherit" font-size="12" dy=".8em" y="46.70000044256449" x="354.50001042336226">年龄</text></g></g><g id="minder_node13"><g id="node_expander12" style="cursor: pointer;" display="none"><path id="kity_path_124" fill="white" stroke="gray" d="M349.5000102594495,80.50000085681677A6,6,0,1,1,337.5000102594495,80.50000085681677A6,6,0,1,1,349.5000102594495,80.50000085681677"></path><path id="kity_path_125" fill="none" stroke="gray"></path></g><path id="node_outline13" fill="none" stroke="none" d="M354.50001042336226,71.50000085681677h26a5,5,0,0,1,5,5v8a5,5,0,0,1,-5,5h-26a5,5,0,0,1,-5,-5v-8a5,5,0,0,1,5,-5z" stroke-width="3"></path><g id="node_text13" fill="black"><text id="kity_text_121" text-rendering="inherit" font-size="12" dy=".8em" y="72.70000082999468" x="354.50001042336226">职业</text></g></g><g id="minder_node15"><g id="node_expander14" style="cursor: pointer;" display="none"><path id="kity_path_140" fill="white" stroke="gray" d="M349.5000102594495,132.50000163167715A6,6,0,1,1,337.5000102594495,132.50000163167715A6,6,0,1,1,349.5000102594495,132.50000163167715"></path><path id="kity_path_141" fill="none" stroke="gray"></path></g><path id="node_outline15" fill="none" stroke="none" d="M354.50001042336226,123.50000163167715h25a5,5,0,0,1,5,5v8a5,5,0,0,1,-5,5h-25a5,5,0,0,1,-5,-5v-8a5,5,0,0,1,5,-5z" stroke-width="3"></path><g id="node_text15" fill="black"><text id="kity_text_137" text-rendering="inherit" font-size="12" dy=".8em" y="124.70000160485506" x="354.50001042336226">区域</text></g></g><g id="minder_node16"><g id="node_expander15" style="cursor: pointer;" display="none"><path id="kity_path_148" fill="white" stroke="gray" d="M349.5000102594495,158.50000201910734A6,6,0,1,1,337.5000102594495,158.50000201910734A6,6,0,1,1,349.5000102594495,158.50000201910734"></path><path id="kity_path_149" fill="none" stroke="gray"></path></g><path id="node_outline16" fill="none" stroke="none" d="M354.50001042336226,149.50000201910734h25a5,5,0,0,1,5,5v8a5,5,0,0,1,-5,5h-25a5,5,0,0,1,-5,-5v-8a5,5,0,0,1,5,-5z" stroke-width="3"></path><g id="node_text16" fill="black"><text id="kity_text_145" text-rendering="inherit" font-size="12" dy=".8em" y="150.70000199228525" x="354.50001042336226">国家</text></g></g><g id="minder_node17"><g id="node_expander16" style="cursor: pointer;" display="none"><path id="kity_path_156" fill="white" stroke="gray" d="M349.5000102594495,184.50000240653753A6,6,0,1,1,337.5000102594495,184.50000240653753A6,6,0,1,1,349.5000102594495,184.50000240653753"></path><path id="kity_path_157" fill="none" stroke="gray"></path></g><path id="node_outline17" fill="none" stroke="none" d="M354.50001042336226,175.50000240653753h25a5,5,0,0,1,5,5v8a5,5,0,0,1,-5,5h-25a5,5,0,0,1,-5,-5v-8a5,5,0,0,1,5,-5z" stroke-width="3"></path><g id="node_text17" fill="black"><text id="kity_text_153" text-rendering="inherit" font-size="12" dy=".8em" y="176.70000237971544" x="354.50001042336226">城市</text></g></g><g id="minder_node18"><g id="node_expander17" style="cursor: pointer;" display="none"><path id="kity_path_164" fill="white" stroke="gray" d="M349.5000102594495,236.50000318139791A6,6,0,1,1,337.5000102594495,236.50000318139791A6,6,0,1,1,349.5000102594495,236.50000318139791"></path><path id="kity_path_165" fill="none" stroke="gray"></path></g><path id="node_outline18" fill="none" stroke="none" d="M354.50001042336226,227.50000318139791h61a5,5,0,0,1,5,5v8a5,5,0,0,1,-5,5h-61a5,5,0,0,1,-5,-5v-8a5,5,0,0,1,5,-5z" stroke-width="3"></path><g id="node_text18" fill="black"><text id="kity_text_161" text-rendering="inherit" font-size="12" dy=".8em" y="228.70000315457582" x="354.50001042336226">受教育程度</text></g></g><g id="minder_node19"><g id="node_expander18" style="cursor: pointer;" display="none"><path id="kity_path_172" fill="white" stroke="gray" d="M349.5000102594495,262.5000035688281A6,6,0,1,1,337.5000102594495,262.5000035688281A6,6,0,1,1,349.5000102594495,262.5000035688281"></path><path id="kity_path_173" fill="none" stroke="gray"></path></g><path id="node_outline19" fill="none" stroke="none" d="M354.50001042336226,253.5000035688281h49a5,5,0,0,1,5,5v8a5,5,0,0,1,-5,5h-49a5,5,0,0,1,-5,-5v-8a5,5,0,0,1,5,-5z" stroke-width="3"></path><g id="node_text19" fill="black"><text id="kity_text_169" text-rendering="inherit" font-size="12" dy=".8em" y="254.70000354200602" x="354.50001042336226">经济状况</text></g></g><g id="minder_node20"><g id="node_expander19" style="cursor: pointer;"><path id="kity_path_180" fill="white" stroke="gray" d="M272.50000911206007,373.500005222857A6,6,0,1,1,260.50000911206007,373.500005222857A6,6,0,1,1,272.50000911206007,373.500005222857"></path><path id="kity_path_181" fill="none" stroke="gray" d="M262.00000911206007,373.500005222857L271.00000911206007,373.500005222857"></path></g><path id="node_outline20" fill="none" stroke="none" d="M277.50000927597284,364.500005222857h49a5,5,0,0,1,5,5v8a5,5,0,0,1,-5,5h-49a5,5,0,0,1,-5,-5v-8a5,5,0,0,1,5,-5z" stroke-width="3"></path><g id="node_text20" fill="black"><text id="kity_text_177" text-rendering="inherit" font-size="12" dy=".8em" y="365.7000051960349" x="277.50000927597284">购物习惯</text></g></g><g id="minder_node21"><g id="node_expander20" style="cursor: pointer;"><path id="kity_path_188" fill="white" stroke="gray" d="M272.50000911206007,438.5000061914325A6,6,0,1,1,260.50000911206007,438.5000061914325A6,6,0,1,1,272.50000911206007,438.5000061914325"></path><path id="kity_path_189" fill="none" stroke="gray" d="M262.00000911206007,438.5000061914325L271.00000911206007,438.5000061914325"></path></g><path id="node_outline21" fill="none" stroke="none" d="M277.50000927597284,429.5000061914325h49a5,5,0,0,1,5,5v8a5,5,0,0,1,-5,5h-49a5,5,0,0,1,-5,-5v-8a5,5,0,0,1,5,-5z" stroke-width="3"></path><g id="node_text21" fill="black"><text id="kity_text_185" text-rendering="inherit" font-size="12" dy=".8em" y="430.7000061646104" x="277.50000927597284">付费习惯</text></g></g><g id="minder_node22"><g id="node_expander21" style="cursor: pointer;" display="none"><path id="kity_path_196" fill="white" stroke="gray" d="M347.50001022964716,347.5000048354268A6,6,0,1,1,335.50001022964716,347.5000048354268A6,6,0,1,1,347.50001022964716,347.5000048354268"></path><path id="kity_path_197" fill="none" stroke="gray"></path></g><path id="node_outline22" fill="none" stroke="none" d="M352.50001039355993,338.5000048354268h50a5,5,0,0,1,5,5v8a5,5,0,0,1,-5,5h-50a5,5,0,0,1,-5,-5v-8a5,5,0,0,1,5,-5z" stroke-width="3"></path><g id="node_text22" fill="black"><text id="kity_text_193" text-rendering="inherit" font-size="12" dy=".8em" y="339.7000048086047" x="352.50001039355993">消费频次</text></g></g><g id="minder_node23"><g id="node_expander22" style="cursor: pointer;" display="none"><path id="kity_path_204" fill="white" stroke="gray" d="M347.50001022964716,373.500005222857A6,6,0,1,1,335.50001022964716,373.500005222857A6,6,0,1,1,347.50001022964716,373.500005222857"></path><path id="kity_path_205" fill="none" stroke="gray"></path></g><path id="node_outline23" fill="none" stroke="none" d="M352.50001039355993,364.500005222857h49a5,5,0,0,1,5,5v8a5,5,0,0,1,-5,5h-49a5,5,0,0,1,-5,-5v-8a5,5,0,0,1,5,-5z" stroke-width="3"></path><g id="node_text23" fill="black"><text id="kity_text_201" text-rendering="inherit" font-size="12" dy=".8em" y="365.7000051960349" x="352.50001039355993">消费类目</text></g></g><g id="minder_node24"><g id="node_expander23" style="cursor: pointer;" display="none"><path id="kity_path_212" fill="white" stroke="gray" d="M347.50001022964716,425.5000059977174A6,6,0,1,1,335.50001022964716,425.5000059977174A6,6,0,1,1,347.50001022964716,425.5000059977174"></path><path id="kity_path_213" fill="none" stroke="gray"></path></g><path id="node_outline24" fill="none" stroke="none" d="M352.50001039355993,416.5000059977174h50a5,5,0,0,1,5,5v8a5,5,0,0,1,-5,5h-50a5,5,0,0,1,-5,-5v-8a5,5,0,0,1,5,-5z" stroke-width="3"></path><g id="node_text24" fill="black"><text id="kity_text_209" text-rendering="inherit" font-size="12" dy=".8em" y="417.7000059708953" x="352.50001039355993">支付方式</text></g></g><g id="minder_node26"><g id="node_expander25" style="cursor: pointer;"><path id="kity_path_228" fill="white" stroke="gray" d="M272.50000911206007,537.5000076666474A6,6,0,1,1,260.50000911206007,537.5000076666474A6,6,0,1,1,272.50000911206007,537.5000076666474"></path><path id="kity_path_229" fill="none" stroke="gray" d="M262.00000911206007,537.5000076666474L271.00000911206007,537.5000076666474"></path></g><path id="node_outline26" fill="none" stroke="none" d="M277.50000927597284,528.5000076666474h49a5,5,0,0,1,5,5v8a5,5,0,0,1,-5,5h-49a5,5,0,0,1,-5,-5v-8a5,5,0,0,1,5,-5z" stroke-width="3"></path><g id="node_text26" fill="black"><text id="kity_text_225" text-rendering="inherit" font-size="12" dy=".8em" y="529.7000076398253" x="277.50000927597284">内容偏好</text></g></g><g id="minder_node27"><g id="node_expander26" style="cursor: pointer;" display="none"><path id="kity_path_236" fill="white" stroke="gray" d="M272.50000911206007,589.5000084415078A6,6,0,1,1,260.50000911206007,589.5000084415078A6,6,0,1,1,272.50000911206007,589.5000084415078"></path><path id="kity_path_237" fill="none" stroke="gray"></path></g><path id="node_outline27" fill="none" stroke="none" d="M277.50000927597284,580.5000084415078h20a5,5,0,0,1,5,5v8a5,5,0,0,1,-5,5h-20a5,5,0,0,1,-5,-5v-8a5,5,0,0,1,5,-5z" stroke-width="3"></path><g id="node_text27" fill="black"><text id="kity_text_233" text-rendering="inherit" font-size="12" dy=".8em" y="581.7000084146857" x="277.50000927597284">……</text></g></g><g id="minder_node28"><g id="node_expander27" style="cursor: pointer;" display="none"><path id="kity_path_244" fill="white" stroke="gray" d="M347.50001022964716,511.50000727921724A6,6,0,1,1,335.50001022964716,511.50000727921724A6,6,0,1,1,347.50001022964716,511.50000727921724"></path><path id="kity_path_245" fill="none" stroke="gray"></path></g><path id="node_outline28" fill="none" stroke="none" d="M352.50001039355993,502.50000727921724h49a5,5,0,0,1,5,5v8a5,5,0,0,1,-5,5h-49a5,5,0,0,1,-5,-5v-8a5,5,0,0,1,5,-5z" stroke-width="3"></path><g id="node_text28" fill="black"><text id="kity_text_241" text-rendering="inherit" font-size="12" dy=".8em" y="503.70000725239515" x="352.50001039355993">浏览时长</text></g></g><g id="minder_node29"><g id="node_expander28" style="cursor: pointer;" display="none"><path id="kity_path_252" fill="white" stroke="gray" d="M347.50001022964716,537.5000076666474A6,6,0,1,1,335.50001022964716,537.5000076666474A6,6,0,1,1,347.50001022964716,537.5000076666474"></path><path id="kity_path_253" fill="none" stroke="gray"></path></g><path id="node_outline29" fill="none" stroke="none" d="M352.50001039355993,528.5000076666474h49a5,5,0,0,1,5,5v8a5,5,0,0,1,-5,5h-49a5,5,0,0,1,-5,-5v-8a5,5,0,0,1,5,-5z" stroke-width="3"></path><g id="node_text29" fill="black"><text id="kity_text_249" text-rendering="inherit" font-size="12" dy=".8em" y="529.7000076398253" x="352.50001039355993">内容品类</text></g></g><g id="minder_node30"><g id="node_expander29" style="cursor: pointer;" display="none"><path id="kity_path_260" fill="white" stroke="gray" d="M347.50001022964716,451.50000638514757A6,6,0,1,1,335.50001022964716,451.50000638514757A6,6,0,1,1,347.50001022964716,451.50000638514757"></path><path id="kity_path_261" fill="none" stroke="gray"></path></g><path id="node_outline30" fill="none" stroke="none" d="M352.50001039355993,442.50000638514757h20a5,5,0,0,1,5,5v8a5,5,0,0,1,-5,5h-20a5,5,0,0,1,-5,-5v-8a5,5,0,0,1,5,-5z" stroke-width="3"></path><g id="node_text30" fill="black"><text id="kity_text_257" text-rendering="inherit" font-size="12" dy=".8em" y="443.7000063583255" x="352.50001039355993">……</text></g></g><g id="minder_node31"><g id="node_expander30" style="cursor: pointer;" display="none"><path id="kity_path_268" fill="white" stroke="gray" d="M347.50001022964716,563.5000080540776A6,6,0,1,1,335.50001022964716,563.5000080540776A6,6,0,1,1,347.50001022964716,563.5000080540776"></path><path id="kity_path_269" fill="none" stroke="gray"></path></g><path id="node_outline31" fill="none" stroke="none" d="M352.50001039355993,554.5000080540776h20a5,5,0,0,1,5,5v8a5,5,0,0,1,-5,5h-20a5,5,0,0,1,-5,-5v-8a5,5,0,0,1,5,-5z" stroke-width="3"></path><g id="node_text31" fill="black"><text id="kity_text_265" text-rendering="inherit" font-size="12" dy=".8em" y="555.7000080272555" x="352.50001039355993">……</text></g></g><g id="minder_node32"><g id="node_expander31" style="cursor: pointer;" display="none"><path id="kity_path_276" fill="white" stroke="gray" d="M347.50001022964716,399.5000056102872A6,6,0,1,1,335.50001022964716,399.5000056102872A6,6,0,1,1,347.50001022964716,399.5000056102872"></path><path id="kity_path_277" fill="none" stroke="gray"></path></g><path id="node_outline32" fill="none" stroke="none" d="M352.50001039355993,390.5000056102872h20a5,5,0,0,1,5,5v8a5,5,0,0,1,-5,5h-20a5,5,0,0,1,-5,-5v-8a5,5,0,0,1,5,-5z" stroke-width="3"></path><g id="node_text32" fill="black"><text id="kity_text_273" text-rendering="inherit" font-size="12" dy=".8em" y="391.7000055834651" x="352.50001039355993">……</text></g></g><g id="minder_node33"><g id="node_expander32" style="cursor: pointer;" display="none"><path id="kity_path_284" fill="white" stroke="gray" d="M349.5000102594495,288.5000039562583A6,6,0,1,1,337.5000102594495,288.5000039562583A6,6,0,1,1,349.5000102594495,288.5000039562583"></path><path id="kity_path_285" fill="none" stroke="gray"></path></g><path id="node_outline33" fill="none" stroke="none" d="M354.50001042336226,279.5000039562583h20a5,5,0,0,1,5,5v8a5,5,0,0,1,-5,5h-20a5,5,0,0,1,-5,-5v-8a5,5,0,0,1,5,-5z" stroke-width="3"></path><g id="node_text33" fill="black"><text id="kity_text_281" text-rendering="inherit" font-size="12" dy=".8em" y="280.7000039294362" x="354.50001042336226">……</text></g></g><g id="minder_node34"><g id="node_expander33" style="cursor: pointer;" display="none"><path id="kity_path_292" fill="white" stroke="gray" d="M349.5000102594495,210.50000279396772A6,6,0,1,1,337.5000102594495,210.50000279396772A6,6,0,1,1,349.5000102594495,210.50000279396772"></path><path id="kity_path_293" fill="none" stroke="gray"></path></g><path id="node_outline34" fill="none" stroke="none" d="M354.50001042336226,201.50000279396772h20a5,5,0,0,1,5,5v8a5,5,0,0,1,-5,5h-20a5,5,0,0,1,-5,-5v-8a5,5,0,0,1,5,-5z" stroke-width="3"></path><g id="node_text34" fill="black"><text id="kity_text_289" text-rendering="inherit" font-size="12" dy=".8em" y="202.70000276714563" x="354.50001042336226">……</text></g></g><g id="minder_node35"><g id="node_expander34" style="cursor: pointer;" display="none"><path id="kity_path_300" fill="white" stroke="gray" d="M349.5000102594495,106.50000124424696A6,6,0,1,1,337.5000102594495,106.50000124424696A6,6,0,1,1,349.5000102594495,106.50000124424696"></path><path id="kity_path_301" fill="none" stroke="gray"></path></g><path id="node_outline35" fill="none" stroke="none" d="M354.50001042336226,97.50000124424696h20a5,5,0,0,1,5,5v8a5,5,0,0,1,-5,5h-20a5,5,0,0,1,-5,-5v-8a5,5,0,0,1,5,-5z" stroke-width="3"></path><g id="node_text35" fill="black"><text id="kity_text_297" text-rendering="inherit" font-size="12" dy=".8em" y="98.70000121742487" x="354.50001042336226">……</text></g></g><g id="minder_node36"><g id="node_expander35" style="cursor: pointer;" display="none"><path id="kity_path_308" fill="white" stroke="gray" d="M273.50000912696123,314.5000043436885A6,6,0,1,1,261.50000912696123,314.5000043436885A6,6,0,1,1,273.50000912696123,314.5000043436885"></path><path id="kity_path_309" fill="none" stroke="gray"></path></g><path id="node_outline36" fill="none" stroke="none" d="M278.500009290874,305.5000043436885h20a5,5,0,0,1,5,5v8a5,5,0,0,1,-5,5h-20a5,5,0,0,1,-5,-5v-8a5,5,0,0,1,5,-5z" stroke-width="3"></path><g id="node_text36" fill="black"><text id="kity_text_305" text-rendering="inherit" font-size="12" dy=".8em" y="306.7000043168664" x="278.500009290874">……</text></g></g><g id="minder_node37"><g id="node_expander36" style="cursor: pointer;" display="none"><path id="kity_path_316" fill="white" stroke="gray" d="M272.50000911206007,477.50000677257776A6,6,0,1,1,260.50000911206007,477.50000677257776A6,6,0,1,1,272.50000911206007,477.50000677257776"></path><path id="kity_path_317" fill="none" stroke="gray"></path></g><path id="node_outline37" fill="none" stroke="none" d="M277.50000927597284,468.50000677257776h20a5,5,0,0,1,5,5v8a5,5,0,0,1,-5,5h-20a5,5,0,0,1,-5,-5v-8a5,5,0,0,1,5,-5z" stroke-width="3"></path><g id="node_text37" fill="black"><text id="kity_text_313" text-rendering="inherit" font-size="12" dy=".8em" y="469.7000067457557" x="277.50000927597284">……</text></g></g><g id="minder_node38"><g id="node_expander37" style="cursor: pointer;"><path id="kity_path_324" fill="white" stroke="gray" d="M272.50000911206007,649.5000093355775A6,6,0,1,1,260.50000911206007,649.5000093355775A6,6,0,1,1,272.50000911206007,649.5000093355775"></path><path id="kity_path_325" fill="none" stroke="gray" d="M262.00000911206007,649.5000093355775L271.00000911206007,649.5000093355775"></path></g><path id="node_outline38" fill="none" stroke="none" d="M277.50000927597284,640.5000093355775h48a5,5,0,0,1,5,5v8a5,5,0,0,1,-5,5h-48a5,5,0,0,1,-5,-5v-8a5,5,0,0,1,5,-5z" stroke-width="3"></path><g id="node_text38" fill="black"><text id="kity_text_321" text-rendering="inherit" font-size="12" dy=".8em" y="641.7000093087554" x="277.50000927597284">上网习惯</text></g></g><g id="minder_node39"><g id="node_expander38" style="cursor: pointer;"><path id="kity_path_332" fill="white" stroke="gray" d="M272.50000911206007,727.5000104978681A6,6,0,1,1,260.50000911206007,727.5000104978681A6,6,0,1,1,272.50000911206007,727.5000104978681"></path><path id="kity_path_333" fill="none" stroke="gray" d="M262.00000911206007,727.5000104978681L271.00000911206007,727.5000104978681"></path></g><path id="node_outline39" fill="none" stroke="none" d="M277.50000927597284,718.5000104978681h49a5,5,0,0,1,5,5v8a5,5,0,0,1,-5,5h-49a5,5,0,0,1,-5,-5v-8a5,5,0,0,1,5,-5z" stroke-width="3"></path><g id="node_text39" fill="black"><text id="kity_text_329" text-rendering="inherit" font-size="12" dy=".8em" y="719.700010471046" x="277.50000927597284">娱乐习惯</text></g></g><g id="minder_node40"><g id="node_expander39" style="cursor: pointer;" display="none"><path id="kity_path_340" fill="white" stroke="gray" d="M272.50000911206007,779.5000112727284A6,6,0,1,1,260.50000911206007,779.5000112727284A6,6,0,1,1,272.50000911206007,779.5000112727284"></path><path id="kity_path_341" fill="none" stroke="gray"></path></g><path id="node_outline40" fill="none" stroke="none" d="M277.50000927597284,770.5000112727284h20a5,5,0,0,1,5,5v8a5,5,0,0,1,-5,5h-20a5,5,0,0,1,-5,-5v-8a5,5,0,0,1,5,-5z" stroke-width="3"></path><g id="node_text40" fill="black"><text id="kity_text_337" text-rendering="inherit" font-size="12" dy=".8em" y="771.7000112459064" x="277.50000927597284">……</text></g></g><g id="minder_node41"><g id="node_expander40" style="cursor: pointer;" display="none"><path id="kity_path_348" fill="white" stroke="gray" d="M346.500010214746,623.5000089481473A6,6,0,1,1,334.500010214746,623.5000089481473A6,6,0,1,1,346.500010214746,623.5000089481473"></path><path id="kity_path_349" fill="none" stroke="gray"></path></g><path id="node_outline41" fill="none" stroke="none" d="M351.50001037865877,614.5000089481473h49a5,5,0,0,1,5,5v8a5,5,0,0,1,-5,5h-49a5,5,0,0,1,-5,-5v-8a5,5,0,0,1,5,-5z" stroke-width="3"></path><g id="node_text41" fill="black"><text id="kity_text_345" text-rendering="inherit" font-size="12" dy=".8em" y="615.7000089213252" x="351.50001037865877">上网频次</text></g></g><g id="minder_node42"><g id="node_expander41" style="cursor: pointer;" display="none"><path id="kity_path_356" fill="white" stroke="gray" d="M346.500010214746,649.5000093355775A6,6,0,1,1,334.500010214746,649.5000093355775A6,6,0,1,1,346.500010214746,649.5000093355775"></path><path id="kity_path_357" fill="none" stroke="gray"></path></g><path id="node_outline42" fill="none" stroke="none" d="M351.50001037865877,640.5000093355775h48a5,5,0,0,1,5,5v8a5,5,0,0,1,-5,5h-48a5,5,0,0,1,-5,-5v-8a5,5,0,0,1,5,-5z" stroke-width="3"></path><g id="node_text42" fill="black"><text id="kity_text_353" text-rendering="inherit" font-size="12" dy=".8em" y="641.7000093087554" x="351.50001037865877">时段分布</text></g></g><g id="minder_node44"><g id="node_expander43" style="cursor: pointer;" display="none"><path id="kity_path_372" fill="white" stroke="gray" d="M347.50001022964716,701.5000101104379A6,6,0,1,1,335.50001022964716,701.5000101104379A6,6,0,1,1,347.50001022964716,701.5000101104379"></path><path id="kity_path_373" fill="none" stroke="gray"></path></g><path id="node_outline44" fill="none" stroke="none" d="M352.50001039355993,692.5000101104379h50a5,5,0,0,1,5,5v8a5,5,0,0,1,-5,5h-50a5,5,0,0,1,-5,-5v-8a5,5,0,0,1,5,-5z" stroke-width="3"></path><g id="node_text44" fill="black"><text id="kity_text_369" text-rendering="inherit" font-size="12" dy=".8em" y="693.7000100836158" x="352.50001039355993">娱乐方式</text></g></g><g id="minder_node45"><g id="node_expander44" style="cursor: pointer;" display="none"><path id="kity_path_380" fill="white" stroke="gray" d="M347.50001022964716,727.5000104978681A6,6,0,1,1,335.50001022964716,727.5000104978681A6,6,0,1,1,347.50001022964716,727.5000104978681"></path><path id="kity_path_381" fill="none" stroke="gray"></path></g><path id="node_outline45" fill="none" stroke="none" d="M352.50001039355993,718.5000104978681h49a5,5,0,0,1,5,5v8a5,5,0,0,1,-5,5h-49a5,5,0,0,1,-5,-5v-8a5,5,0,0,1,5,-5z" stroke-width="3"></path><g id="node_text45" fill="black"><text id="kity_text_377" text-rendering="inherit" font-size="12" dy=".8em" y="719.700010471046" x="352.50001039355993">娱乐时长</text></g></g><g id="minder_node46"><g id="node_expander45" style="cursor: pointer;" display="none"><path id="kity_path_388" fill="white" stroke="gray" d="M347.50001022964716,753.5000108852983A6,6,0,1,1,335.50001022964716,753.5000108852983A6,6,0,1,1,347.50001022964716,753.5000108852983"></path><path id="kity_path_389" fill="none" stroke="gray"></path></g><path id="node_outline46" fill="none" stroke="none" d="M352.50001039355993,744.5000108852983h20a5,5,0,0,1,5,5v8a5,5,0,0,1,-5,5h-20a5,5,0,0,1,-5,-5v-8a5,5,0,0,1,5,-5z" stroke-width="3"></path><g id="node_text46" fill="black"><text id="kity_text_385" text-rendering="inherit" font-size="12" dy=".8em" y="745.7000108584762" x="352.50001039355993">……</text></g></g><g id="minder_node47"><g id="node_expander46" style="cursor: pointer;" display="none"><path id="kity_path_396" fill="white" stroke="gray" d="M346.500010214746,675.5000097230077A6,6,0,1,1,334.500010214746,675.5000097230077A6,6,0,1,1,346.500010214746,675.5000097230077"></path><path id="kity_path_397" fill="none" stroke="gray"></path></g><path id="node_outline47" fill="none" stroke="rgb(57, 80, 96)" d="M351.50001037865877,666.5000097230077h20a5,5,0,0,1,5,5v8a5,5,0,0,1,-5,5h-20a5,5,0,0,1,-5,-5v-8a5,5,0,0,1,5,-5z" stroke-width="3"></path><g id="node_text47" fill="black"><text id="kity_text_393" text-rendering="inherit" font-size="12" dy=".8em" y="667.7000096961856" x="351.50001037865877">……</text></g></g></g></g></svg>