<svg id="kity_svg_6" xmlns="http://www.w3.org/2000/svg" xmlns:xlink="http://www.w3.org/1999/xlink" version="1.1" width="535" height="956" style="background: rgb(251, 251, 251); visibility: visible;" viewBox="0 0 535 956"><defs id="kity_defs_7"><linearGradient id="kity_linearGradient_17" x1="0" y1="0" x2="0" y2="1"><stop id="kity_stop_18" offset="0" stop-color="rgb(255, 255, 255)"></stop><stop id="kity_stop_19" offset="1" stop-color="rgb(204, 204, 204)"></stop></linearGradient><marker id="kity_marker_2" orient="auto" refX="6" refY="0" viewBox="-7 -7 14 14" markerWidth="7" markerHeight="7" markerUnits="userSpaceOnUse"><path id="kity_path_3" fill="rgb(123, 115, 191)" stroke="none" d="M6,0A6,6,0,1,1,-6,0A6,6,0,1,1,6,0"></path></marker></defs><g id="kity_g_8"><g id="minder1" text-rendering="optimize-speed"><g id="minder_connect_group1"><path id="kity_path_31" fill="none" stroke="rgb(123, 115, 191)" stroke-width="1" d="M81.00000733882189,508.5000051483512A76.5,370,0,0,1,157.5000073388219,138.5000051483512"></path><path id="kity_path_33" fill="none" stroke="rgb(123, 115, 191)" stroke-width="1" d="M229.5000073388219,138.5000051483512C237.5000073388219,138.5000051483512,237.5000073388219,93.50000514835119,245.5000073388219,93.50000514835119"></path><path id="kity_path_35" fill="none" stroke="rgb(123, 115, 191)" stroke-width="1" d="M317.5000073388219,93.50000514835119C325.5000073388219,93.50000514835119,325.5000073388219,28.500005148351192,333.5000073388219,28.500005148351192"></path><path id="kity_path_37" fill="none" stroke="rgb(123, 115, 191)" stroke-width="1" d="M317.5000073388219,93.50000514835119C325.5000073388219,93.50000514835119,325.5000073388219,54.50000514835119,333.5000073388219,54.50000514835119"></path><path id="kity_path_39" fill="none" stroke="rgb(123, 115, 191)" stroke-width="1" d="M317.5000073388219,93.50000514835119C325.5000073388219,93.50000514835119,325.5000073388219,80.50000514835119,333.5000073388219,80.50000514835119"></path><path id="kity_path_41" fill="none" stroke="rgb(123, 115, 191)" stroke-width="1" d="M317.5000073388219,93.50000514835119C325.5000073388219,93.50000514835119,325.5000073388219,106.50000514835119,333.5000073388219,106.50000514835119"></path><path id="kity_path_43" fill="none" stroke="rgb(123, 115, 191)" stroke-width="1" d="M317.5000073388219,93.50000514835119C325.5000073388219,93.50000514835119,325.5000073388219,132.5000051483512,333.5000073388219,132.5000051483512"></path><path id="kity_path_45" fill="none" stroke="rgb(123, 115, 191)" stroke-width="1" d="M317.5000073388219,93.50000514835119C325.5000073388219,93.50000514835119,325.5000073388219,158.5000051483512,333.5000073388219,158.5000051483512"></path><path id="kity_path_47" fill="none" stroke="rgb(123, 115, 191)" stroke-width="1" d="M229.5000073388219,138.5000051483512C237.5000073388219,138.5000051483512,237.5000073388219,184.5000051483512,245.5000073388219,184.5000051483512"></path><path id="kity_path_49" fill="none" stroke="rgb(123, 115, 191)" stroke-width="1" d="M81.00000733882189,508.5000051483512A76.5,222,0,0,1,157.5000073388219,286.5000051483512"></path><path id="kity_path_51" fill="none" stroke="rgb(123, 115, 191)" stroke-width="1" d="M228.5000073388219,286.5000051483512C236.5000073388219,286.5000051483512,236.5000073388219,237.5000051483512,244.5000073388219,237.5000051483512"></path><path id="kity_path_53" fill="none" stroke="rgb(123, 115, 191)" stroke-width="1" d="M303.5000073388219,237.5000051483512C311.5000073388219,237.5000051483512,311.5000073388219,218.5000051483512,319.5000073388219,218.5000051483512"></path><path id="kity_path_55" fill="none" stroke="rgb(123, 115, 191)" stroke-width="1" d="M303.5000073388219,237.5000051483512C311.5000073388219,237.5000051483512,311.5000073388219,257.5000051483512,319.5000073388219,257.5000051483512"></path><path id="kity_path_57" fill="none" stroke="rgb(123, 115, 191)" stroke-width="1" d="M366.5000073388219,257.5000051483512C374.5000073388219,257.5000051483512,374.5000073388219,244.5000051483512,382.5000073388219,244.5000051483512"></path><path id="kity_path_59" fill="none" stroke="rgb(123, 115, 191)" stroke-width="1" d="M366.5000073388219,257.5000051483512C374.5000073388219,257.5000051483512,374.5000073388219,270.5000051483512,382.5000073388219,270.5000051483512"></path><path id="kity_path_61" fill="none" stroke="rgb(123, 115, 191)" stroke-width="1" d="M228.5000073388219,286.5000051483512C236.5000073388219,286.5000051483512,236.5000073388219,335.5000051483512,244.5000073388219,335.5000051483512"></path><path id="kity_path_63" fill="none" stroke="rgb(123, 115, 191)" stroke-width="1" d="M303.5000073388219,335.5000051483512C311.5000073388219,335.5000051483512,311.5000073388219,296.5000051483512,319.5000073388219,296.5000051483512"></path><path id="kity_path_65" fill="none" stroke="rgb(123, 115, 191)" stroke-width="1" d="M303.5000073388219,335.5000051483512C311.5000073388219,335.5000051483512,311.5000073388219,322.5000051483512,319.5000073388219,322.5000051483512"></path><path id="kity_path_67" fill="none" stroke="rgb(123, 115, 191)" stroke-width="1" d="M303.5000073388219,335.5000051483512C311.5000073388219,335.5000051483512,311.5000073388219,348.5000051483512,319.5000073388219,348.5000051483512"></path><path id="kity_path_69" fill="none" stroke="rgb(123, 115, 191)" stroke-width="1" d="M303.5000073388219,335.5000051483512C311.5000073388219,335.5000051483512,311.5000073388219,374.5000051483512,319.5000073388219,374.5000051483512"></path><path id="kity_path_71" fill="none" stroke="rgb(123, 115, 191)" stroke-width="1" d="M81.00000733882189,508.5000051483512A76.5,10,0,0,1,157.5000073388219,498.5000051483512"></path><path id="kity_path_73" fill="none" stroke="rgb(123, 115, 191)" stroke-width="1" d="M228.5000073388219,498.5000051483512C236.5000073388219,498.5000051483512,236.5000073388219,446.5000051483512,244.5000073388219,446.5000051483512"></path><path id="kity_path_75" fill="none" stroke="rgb(123, 115, 191)" stroke-width="1" d="M291.5000073388219,446.5000051483512C299.5000073388219,446.5000051483512,299.5000073388219,407.5000051483512,307.5000073388219,407.5000051483512"></path><path id="kity_path_77" fill="none" stroke="rgb(123, 115, 191)" stroke-width="1" d="M291.5000073388219,446.5000051483512C299.5000073388219,446.5000051483512,299.5000073388219,433.5000051483512,307.5000073388219,433.5000051483512"></path><path id="kity_path_79" fill="none" stroke="rgb(123, 115, 191)" stroke-width="1" d="M291.5000073388219,446.5000051483512C299.5000073388219,446.5000051483512,299.5000073388219,459.5000051483512,307.5000073388219,459.5000051483512"></path><path id="kity_path_81" fill="none" stroke="rgb(123, 115, 191)" stroke-width="1" d="M291.5000073388219,446.5000051483512C299.5000073388219,446.5000051483512,299.5000073388219,485.5000051483512,307.5000073388219,485.5000051483512"></path><path id="kity_path_83" fill="none" stroke="rgb(123, 115, 191)" stroke-width="1" d="M228.5000073388219,498.5000051483512C236.5000073388219,498.5000051483512,236.5000073388219,550.5000051483512,244.5000073388219,550.5000051483512"></path><path id="kity_path_85" fill="none" stroke="rgb(123, 115, 191)" stroke-width="1" d="M292.5000073388219,550.5000051483512C300.5000073388219,550.5000051483512,300.5000073388219,511.5000051483512,308.5000073388219,511.5000051483512"></path><path id="kity_path_87" fill="none" stroke="rgb(123, 115, 191)" stroke-width="1" d="M292.5000073388219,550.5000051483512C300.5000073388219,550.5000051483512,300.5000073388219,537.5000051483512,308.5000073388219,537.5000051483512"></path><path id="kity_path_89" fill="none" stroke="rgb(123, 115, 191)" stroke-width="1" d="M292.5000073388219,550.5000051483512C300.5000073388219,550.5000051483512,300.5000073388219,563.5000051483512,308.5000073388219,563.5000051483512"></path><path id="kity_path_91" fill="none" stroke="rgb(123, 115, 191)" stroke-width="1" d="M292.5000073388219,550.5000051483512C300.5000073388219,550.5000051483512,300.5000073388219,589.5000051483512,308.5000073388219,589.5000051483512"></path><path id="kity_path_93" fill="none" stroke="rgb(123, 115, 191)" stroke-width="1" d="M81.00000733882189,508.5000051483512A76.5,213,0,0,0,157.5000073388219,721.5000051483512"></path><path id="kity_path_95" fill="none" stroke="rgb(123, 115, 191)" stroke-width="1" d="M228.5000073388219,721.5000051483512C236.5000073388219,721.5000051483512,236.5000073388219,637.5000051483512,244.5000073388219,637.5000051483512"></path><path id="kity_path_97" fill="none" stroke="rgb(123, 115, 191)" stroke-width="1" d="M292.5000073388219,637.5000051483512C300.5000073388219,637.5000051483512,300.5000073388219,624.5000051483512,308.5000073388219,624.5000051483512"></path><path id="kity_path_99" fill="none" stroke="rgb(123, 115, 191)" stroke-width="1" d="M292.5000073388219,637.5000051483512C300.5000073388219,637.5000051483512,300.5000073388219,650.5000051483512,308.5000073388219,650.5000051483512"></path><path id="kity_path_101" fill="none" stroke="rgb(123, 115, 191)" stroke-width="1" d="M228.5000073388219,721.5000051483512C236.5000073388219,721.5000051483512,236.5000073388219,676.5000051483512,244.5000073388219,676.5000051483512"></path><path id="kity_path_103" fill="none" stroke="rgb(123, 115, 191)" stroke-width="1" d="M228.5000073388219,721.5000051483512C236.5000073388219,721.5000051483512,236.5000073388219,741.5000051483512,244.5000073388219,741.5000051483512"></path><path id="kity_path_105" fill="none" stroke="rgb(123, 115, 191)" stroke-width="1" d="M328.5000073388219,741.5000051483512C336.5000073388219,741.5000051483512,336.5000073388219,702.5000051483512,344.5000073388219,702.5000051483512"></path><path id="kity_path_107" fill="none" stroke="rgb(123, 115, 191)" stroke-width="1" d="M328.5000073388219,741.5000051483512C336.5000073388219,741.5000051483512,336.5000073388219,728.5000051483512,344.5000073388219,728.5000051483512"></path><path id="kity_path_109" fill="none" stroke="rgb(123, 115, 191)" stroke-width="1" d="M328.5000073388219,741.5000051483512C336.5000073388219,741.5000051483512,336.5000073388219,754.5000051483512,344.5000073388219,754.5000051483512"></path><path id="kity_path_111" fill="none" stroke="rgb(123, 115, 191)" stroke-width="1" d="M328.5000073388219,741.5000051483512C336.5000073388219,741.5000051483512,336.5000073388219,780.5000051483512,344.5000073388219,780.5000051483512"></path><path id="kity_path_113" fill="none" stroke="rgb(123, 115, 191)" stroke-width="1" d="M228.5000073388219,721.5000051483512C236.5000073388219,721.5000051483512,236.5000073388219,806.5000051483512,244.5000073388219,806.5000051483512"></path><path id="kity_path_115" fill="none" stroke="rgb(123, 115, 191)" stroke-width="1" d="M81.00000733882189,508.5000051483512A72.5,379,0,0,0,153.5000073388219,887.5000051483512"></path><path id="kity_path_117" fill="none" stroke="rgb(123, 115, 191)" stroke-width="1" d="M238.5000073388219,887.5000051483512C246.5000073388219,887.5000051483512,246.5000073388219,848.5000051483512,254.5000073388219,848.5000051483512"></path><path id="kity_path_119" fill="none" stroke="rgb(123, 115, 191)" stroke-width="1" d="M238.5000073388219,887.5000051483512C246.5000073388219,887.5000051483512,246.5000073388219,874.5000051483512,254.5000073388219,874.5000051483512"></path><path id="kity_path_121" fill="none" stroke="rgb(123, 115, 191)" stroke-width="1" d="M238.5000073388219,887.5000051483512C246.5000073388219,887.5000051483512,246.5000073388219,900.5000051483512,254.5000073388219,900.5000051483512"></path><path id="kity_path_123" fill="none" stroke="rgb(123, 115, 191)" stroke-width="1" d="M238.5000073388219,887.5000051483512C246.5000073388219,887.5000051483512,246.5000073388219,926.5000051483512,254.5000073388219,926.5000051483512"></path></g><g id="minder_node1"><path id="node_outline1" fill="rgb(123, 115, 191)" stroke="rgb(61, 57, 96)" d="M25.500007338821888,494.5000051483512h111a5,5,0,0,1,5,5v18a5,5,0,0,1,-5,5h-111a5,5,0,0,1,-5,-5v-18a5,5,0,0,1,5,-5z" stroke-width="3"></path><g id="node_text1" fill="white"><text id="kity_text_22" text-rendering="inherit" font-size="16" dy=".8em" y="498.1000051125884" x="32.50000733882189">通用指标体系</text></g></g><g id="kity_g_12"><path id="kity_path_13" fill="none" stroke="none" d="M32.50000733882189,508.5000051483512h0v0h0z"></path></g><g id="kity_g_14"><path id="kity_path_15" fill="none" stroke="none" d="M32.50000733882189,508.5000051483512h0v0h0z"></path><path id="kity_path_16" fill="none" stroke="none"></path></g><g id="minder_node2"><g id="node_expander9" style="cursor: pointer;"><path id="kity_path_290" fill="white" stroke="gray" d="M158.50000912696123,138.49999963492155A6,6,0,1,1,146.50000912696123,138.49999963492155A6,6,0,1,1,158.50000912696123,138.49999963492155"></path><path id="kity_path_291" fill="none" stroke="gray" d="M148.00000912696123,138.49999963492155L157.00000912696123,138.49999963492155"></path></g><path id="node_outline10" fill="rgb(239, 238, 246)" stroke="rgb(123, 115, 191)" d="M162.50000952929258,125.49999963492155h64a3,3,0,0,1,3,3v20a3,3,0,0,1,-3,3h-64a3,3,0,0,1,-3,-3v-20a3,3,0,0,1,3,-3z" stroke-width="1"></path><g id="node_text10" fill="black"><text id="kity_text_141" text-rendering="inherit" font-size="14" dy=".8em" y="129.3999996036291" x="179.50000952929258">获客</text></g></g><g id="minder_node3"><g id="node_expander7" style="cursor: pointer;"><path id="kity_path_284" fill="white" stroke="gray" d="M245.50001042336226,93.4999989643693A6,6,0,1,1,233.50001042336226,93.4999989643693A6,6,0,1,1,245.50001042336226,93.4999989643693"></path><path id="kity_path_285" fill="none" stroke="gray" d="M235.00001042336226,93.4999989643693L244.00001042336226,93.4999989643693"></path></g><path id="node_outline8" fill="none" stroke="none" d="M250.50001058727503,84.4999989643693h62a5,5,0,0,1,5,5v8a5,5,0,0,1,-5,5h-62a5,5,0,0,1,-5,-5v-8a5,5,0,0,1,5,-5z"></path><g id="node_text8" fill="black"><text id="kity_text_137" text-rendering="inherit" font-size="12" dy=".8em" y="85.6999989375472" x="250.50001058727503">渠道及质量</text></g></g><g id="minder_node4"><g id="node_expander1" display="none" style="cursor: pointer;"><path id="kity_path_266" fill="white" stroke="gray" d="M333.50001173466444,28.49999799579382A6,6,0,1,1,321.50001173466444,28.49999799579382A6,6,0,1,1,333.50001173466444,28.49999799579382"></path><path id="kity_path_267" fill="none" stroke="gray"></path></g><path id="node_outline2" fill="none" stroke="none" d="M338.5000118985772,19.49999799579382h66a5,5,0,0,1,5,5v8a5,5,0,0,1,-5,5h-66a5,5,0,0,1,-5,-5v-8a5,5,0,0,1,5,-5z"></path><g id="node_text2" fill="black"><text id="kity_text_125" text-rendering="inherit" font-size="12" dy=".8em" y="20.69999796897173" x="338.5000118985772">曝光/曝光率</text></g></g><g id="minder_node5"><g id="node_expander2" display="none" style="cursor: pointer;"><path id="kity_path_269" fill="white" stroke="gray" d="M333.50001173466444,54.49999838322401A6,6,0,1,1,321.50001173466444,54.49999838322401A6,6,0,1,1,333.50001173466444,54.49999838322401"></path><path id="kity_path_270" fill="none" stroke="gray"></path></g><path id="node_outline3" fill="none" stroke="none" d="M338.5000118985772,45.49999838322401h62a5,5,0,0,1,5,5v8a5,5,0,0,1,-5,5h-62a5,5,0,0,1,-5,-5v-8a5,5,0,0,1,5,-5z"></path><g id="node_text3" fill="black"><text id="kity_text_127" text-rendering="inherit" font-size="12" dy=".8em" y="46.69999835640192" x="338.5000118985772">点击点击率</text></g></g><g id="minder_node6"><g id="node_expander3" display="none" style="cursor: pointer;"><path id="kity_path_272" fill="white" stroke="gray" d="M333.50001173466444,80.4999987706542A6,6,0,1,1,321.50001173466444,80.4999987706542A6,6,0,1,1,333.50001173466444,80.4999987706542"></path><path id="kity_path_273" fill="none" stroke="gray"></path></g><path id="node_outline4" fill="none" stroke="none" d="M338.5000118985772,71.4999987706542h25a5,5,0,0,1,5,5v8a5,5,0,0,1,-5,5h-25a5,5,0,0,1,-5,-5v-8a5,5,0,0,1,5,-5z"></path><g id="node_text4" fill="black"><text id="kity_text_129" text-rendering="inherit" font-size="12" dy=".8em" y="72.69999874383211" x="338.5000118985772">下载</text></g></g><g id="minder_node7"><g id="node_expander4" display="none" style="cursor: pointer;"><path id="kity_path_275" fill="white" stroke="gray" d="M333.50001173466444,106.49999915808439A6,6,0,1,1,321.50001173466444,106.49999915808439A6,6,0,1,1,333.50001173466444,106.49999915808439"></path><path id="kity_path_276" fill="none" stroke="gray"></path></g><path id="node_outline5" fill="none" stroke="none" d="M338.5000118985772,97.49999915808439h25a5,5,0,0,1,5,5v8a5,5,0,0,1,-5,5h-25a5,5,0,0,1,-5,-5v-8a5,5,0,0,1,5,-5z"></path><g id="node_text5" fill="black"><text id="kity_text_131" text-rendering="inherit" font-size="12" dy=".8em" y="98.6999991312623" x="338.5000118985772">安装</text></g></g><g id="minder_node8"><g id="node_expander5" display="none" style="cursor: pointer;"><path id="kity_path_278" fill="white" stroke="gray" d="M333.50001173466444,132.49999954551458A6,6,0,1,1,321.50001173466444,132.49999954551458A6,6,0,1,1,333.50001173466444,132.49999954551458"></path><path id="kity_path_279" fill="none" stroke="gray"></path></g><path id="node_outline6" fill="none" stroke="none" d="M338.5000118985772,123.49999954551458h26a5,5,0,0,1,5,5v8a5,5,0,0,1,-5,5h-26a5,5,0,0,1,-5,-5v-8a5,5,0,0,1,5,-5z"></path><g id="node_text6" fill="black"><text id="kity_text_133" text-rendering="inherit" font-size="12" dy=".8em" y="124.6999995186925" x="338.5000118985772">激活</text></g></g><g id="minder_node9"><g id="node_expander6" display="none" style="cursor: pointer;"><path id="kity_path_281" fill="white" stroke="gray" d="M333.50001173466444,158.49999993294477A6,6,0,1,1,321.50001173466444,158.49999993294477A6,6,0,1,1,333.50001173466444,158.49999993294477"></path><path id="kity_path_282" fill="none" stroke="gray"></path></g><path id="node_outline7" fill="none" stroke="none" d="M338.5000118985772,149.49999993294477h48a5,5,0,0,1,5,5v8a5,5,0,0,1,-5,5h-48a5,5,0,0,1,-5,-5v-8a5,5,0,0,1,5,-5z"></path><g id="node_text7" fill="black"><text id="kity_text_135" text-rendering="inherit" font-size="12" dy=".8em" y="150.69999990612268" x="338.5000118985772">累计新增</text></g></g><g id="minder_node10"><g id="node_expander8" display="none" style="cursor: pointer;"><path id="kity_path_287" fill="white" stroke="gray" d="M245.50001042336226,184.50000032037497A6,6,0,1,1,233.50001042336226,184.50000032037497A6,6,0,1,1,245.50001042336226,184.50000032037497"></path><path id="kity_path_288" fill="none" stroke="gray"></path></g><path id="node_outline9" fill="none" stroke="none" d="M250.50001058727503,175.50000032037497h50a5,5,0,0,1,5,5v8a5,5,0,0,1,-5,5h-50a5,5,0,0,1,-5,-5v-8a5,5,0,0,1,5,-5z"></path><g id="node_text9" fill="black"><text id="kity_text_139" text-rendering="inherit" font-size="12" dy=".8em" y="176.70000029355288" x="250.50001058727503">获客成本</text></g></g><g id="minder_node11"><g id="node_expander20" style="cursor: pointer;"><path id="kity_path_323" fill="white" stroke="gray" d="M158.50000912696123,286.5000018402934A6,6,0,1,1,146.50000912696123,286.5000018402934A6,6,0,1,1,158.50000912696123,286.5000018402934"></path><path id="kity_path_324" fill="none" stroke="gray" d="M148.00000912696123,286.5000018402934L157.00000912696123,286.5000018402934"></path></g><path id="node_outline21" fill="rgb(239, 238, 246)" stroke="rgb(123, 115, 191)" d="M162.50000952929258,273.5000018402934h63a3,3,0,0,1,3,3v20a3,3,0,0,1,-3,3h-63a3,3,0,0,1,-3,-3v-20a3,3,0,0,1,3,-3z" stroke-width="1"></path><g id="node_text21" fill="black"><text id="kity_text_163" text-rendering="inherit" font-size="14" dy=".8em" y="277.40000180900097" x="179.50000952929258">激活</text></g></g><g id="minder_node12"><g id="node_expander14" style="cursor: pointer;"><path id="kity_path_305" fill="white" stroke="gray" d="M244.5000104084611,237.5000011101365A6,6,0,1,1,232.5000104084611,237.5000011101365A6,6,0,1,1,244.5000104084611,237.5000011101365"></path><path id="kity_path_306" fill="none" stroke="gray" d="M234.0000104084611,237.5000011101365L243.0000104084611,237.5000011101365"></path></g><path id="node_outline15" fill="none" stroke="none" d="M249.50001057237387,228.5000011101365h49a5,5,0,0,1,5,5v8a5,5,0,0,1,-5,5h-49a5,5,0,0,1,-5,-5v-8a5,5,0,0,1,5,-5z"></path><g id="node_text15" fill="black"><text id="kity_text_151" text-rendering="inherit" font-size="12" dy=".8em" y="229.70000108331442" x="249.50001057237387">用户构成</text></g></g><g id="minder_node13"><g id="node_expander10" display="none" style="cursor: pointer;"><path id="kity_path_293" fill="white" stroke="gray" d="M319.5000115260482,218.50000082701445A6,6,0,1,1,307.5000115260482,218.50000082701445A6,6,0,1,1,319.5000115260482,218.50000082701445"></path><path id="kity_path_294" fill="none" stroke="gray"></path></g><path id="node_outline11" fill="none" stroke="none" d="M324.50001168996096,209.50000082701445h37a5,5,0,0,1,5,5v8a5,5,0,0,1,-5,5h-37a5,5,0,0,1,-5,-5v-8a5,5,0,0,1,5,-5z"></path><g id="node_text11" fill="black"><text id="kity_text_143" text-rendering="inherit" font-size="12" dy=".8em" y="210.70000080019236" x="324.50001168996096">新用户</text></g></g><g id="minder_node14"><g id="node_expander13" style="cursor: pointer;"><path id="kity_path_302" fill="white" stroke="gray" d="M319.5000115260482,257.50000140815973A6,6,0,1,1,307.5000115260482,257.50000140815973A6,6,0,1,1,319.5000115260482,257.50000140815973"></path><path id="kity_path_303" fill="none" stroke="gray" d="M309.0000115260482,257.50000140815973L318.0000115260482,257.50000140815973"></path></g><path id="node_outline14" fill="none" stroke="none" d="M324.50001168996096,248.50000140815973h37a5,5,0,0,1,5,5v8a5,5,0,0,1,-5,5h-37a5,5,0,0,1,-5,-5v-8a5,5,0,0,1,5,-5z"></path><g id="node_text14" fill="black"><text id="kity_text_149" text-rendering="inherit" font-size="12" dy=".8em" y="249.70000138133764" x="324.50001168996096">老用户</text></g></g><g id="minder_node15"><g id="node_expander11" display="none" style="cursor: pointer;"><path id="kity_path_296" fill="white" stroke="gray" d="M382.50001246482134,244.50000121444464A6,6,0,1,1,370.50001246482134,244.50000121444464A6,6,0,1,1,382.50001246482134,244.50000121444464"></path><path id="kity_path_297" fill="none" stroke="gray"></path></g><path id="node_outline12" fill="none" stroke="none" d="M387.5000126287341,235.50000121444464h123a5,5,0,0,1,5,5v8a5,5,0,0,1,-5,5h-123a5,5,0,0,1,-5,-5v-8a5,5,0,0,1,5,-5z"></path><g id="node_text12" fill="black"><text id="kity_text_145" text-rendering="inherit" font-size="12" dy=".8em" y="236.70000118762255" x="387.5000126287341">上一个DAU的留存用户</text></g></g><g id="minder_node16"><g id="node_expander12" display="none" style="cursor: pointer;"><path id="kity_path_299" fill="white" stroke="gray" d="M382.50001246482134,270.5000016018748A6,6,0,1,1,370.50001246482134,270.5000016018748A6,6,0,1,1,382.50001246482134,270.5000016018748"></path><path id="kity_path_300" fill="none" stroke="gray"></path></g><path id="node_outline13" fill="none" stroke="none" d="M387.5000126287341,261.5000016018748h97a5,5,0,0,1,5,5v8a5,5,0,0,1,-5,5h-97a5,5,0,0,1,-5,-5v-8a5,5,0,0,1,5,-5z"></path><g id="node_text13" fill="black"><text id="kity_text_147" text-rendering="inherit" font-size="12" dy=".8em" y="262.70000157505274" x="387.5000126287341">七天前的玩家回流</text></g></g><g id="minder_node17"><g id="node_expander19" style="cursor: pointer;"><path id="kity_path_320" fill="white" stroke="gray" d="M244.5000104084611,335.5000025704503A6,6,0,1,1,232.5000104084611,335.5000025704503A6,6,0,1,1,244.5000104084611,335.5000025704503"></path><path id="kity_path_321" fill="none" stroke="gray" d="M234.0000104084611,335.5000025704503L243.0000104084611,335.5000025704503"></path></g><path id="node_outline20" fill="none" stroke="none" d="M249.50001057237387,326.5000025704503h49a5,5,0,0,1,5,5v8a5,5,0,0,1,-5,5h-49a5,5,0,0,1,-5,-5v-8a5,5,0,0,1,5,-5z"></path><g id="node_text20" fill="black"><text id="kity_text_161" text-rendering="inherit" font-size="12" dy=".8em" y="327.7000025436282" x="249.50001057237387">用户黏性</text></g></g><g id="minder_node18"><g id="node_expander15" display="none" style="cursor: pointer;"><path id="kity_path_308" fill="white" stroke="gray" d="M319.5000115260482,296.500001989305A6,6,0,1,1,307.5000115260482,296.500001989305A6,6,0,1,1,319.5000115260482,296.500001989305"></path><path id="kity_path_309" fill="none" stroke="gray"></path></g><path id="node_outline16" fill="none" stroke="none" d="M324.50001168996096,287.500001989305h96a5,5,0,0,1,5,5v8a5,5,0,0,1,-5,5h-96a5,5,0,0,1,-5,-5v-8a5,5,0,0,1,5,-5z"></path><g id="node_text16" fill="black"><text id="kity_text_153" text-rendering="inherit" font-size="12" dy=".8em" y="288.70000196248293" x="324.50001168996096">DAU/WAU/MAU</text></g></g><g id="minder_node19"><g id="node_expander16" display="none" style="cursor: pointer;"><path id="kity_path_311" fill="white" stroke="gray" d="M319.5000115260482,322.5000023767352A6,6,0,1,1,307.5000115260482,322.5000023767352A6,6,0,1,1,319.5000115260482,322.5000023767352"></path><path id="kity_path_312" fill="none" stroke="gray"></path></g><path id="node_outline17" fill="none" stroke="none" d="M324.50001168996096,313.5000023767352h49a5,5,0,0,1,5,5v8a5,5,0,0,1,-5,5h-49a5,5,0,0,1,-5,-5v-8a5,5,0,0,1,5,-5z"></path><g id="node_text17" fill="black"><text id="kity_text_155" text-rendering="inherit" font-size="12" dy=".8em" y="314.7000023499131" x="324.50001168996096">在线时长</text></g></g><g id="minder_node20"><g id="node_expander17" display="none" style="cursor: pointer;"><path id="kity_path_314" fill="white" stroke="gray" d="M319.5000115260482,348.5000027641654A6,6,0,1,1,307.5000115260482,348.5000027641654A6,6,0,1,1,319.5000115260482,348.5000027641654"></path><path id="kity_path_315" fill="none" stroke="gray"></path></g><path id="node_outline18" fill="none" stroke="none" d="M324.50001168996096,339.5000027641654h96a5,5,0,0,1,5,5v8a5,5,0,0,1,-5,5h-96a5,5,0,0,1,-5,-5v-8a5,5,0,0,1,5,-5z"></path><g id="node_text18" fill="black"><text id="kity_text_157" text-rendering="inherit" font-size="12" dy=".8em" y="340.7000027373433" x="324.50001168996096">峰值在线人数PCU</text></g></g><g id="minder_node21"><g id="node_expander18" display="none" style="cursor: pointer;"><path id="kity_path_317" fill="white" stroke="gray" d="M319.5000115260482,374.5000031515956A6,6,0,1,1,307.5000115260482,374.5000031515956A6,6,0,1,1,319.5000115260482,374.5000031515956"></path><path id="kity_path_318" fill="none" stroke="gray"></path></g><path id="node_outline19" fill="none" stroke="none" d="M324.50001168996096,365.5000031515956h97a5,5,0,0,1,5,5v8a5,5,0,0,1,-5,5h-97a5,5,0,0,1,-5,-5v-8a5,5,0,0,1,5,-5z"></path><g id="node_text19" fill="black"><text id="kity_text_159" text-rendering="inherit" font-size="12" dy=".8em" y="366.7000031247735" x="324.50001168996096">同时在线人数ACU</text></g></g><g id="minder_node22"><g id="node_expander31" style="cursor: pointer;"><path id="kity_path_356" fill="white" stroke="gray" d="M158.50000912696123,498.5000049993396A6,6,0,1,1,146.50000912696123,498.5000049993396A6,6,0,1,1,158.50000912696123,498.5000049993396"></path><path id="kity_path_357" fill="none" stroke="gray" d="M148.00000912696123,498.5000049993396L157.00000912696123,498.5000049993396"></path></g><path id="node_outline32" fill="rgb(239, 238, 246)" stroke="rgb(123, 115, 191)" d="M162.50000952929258,485.5000049993396h63a3,3,0,0,1,3,3v20a3,3,0,0,1,-3,3h-63a3,3,0,0,1,-3,-3v-20a3,3,0,0,1,3,-3z" stroke-width="1"></path><g id="node_text32" fill="black"><text id="kity_text_185" text-rendering="inherit" font-size="14" dy=".8em" y="489.40000496804714" x="179.50000952929258">留存</text></g></g><g id="minder_node23"><g id="node_expander25" style="cursor: pointer;"><path id="kity_path_338" fill="white" stroke="gray" d="M244.5000104084611,446.5000042244792A6,6,0,1,1,232.5000104084611,446.5000042244792A6,6,0,1,1,244.5000104084611,446.5000042244792"></path><path id="kity_path_339" fill="none" stroke="gray" d="M234.0000104084611,446.5000042244792L243.0000104084611,446.5000042244792"></path></g><path id="node_outline26" fill="none" stroke="none" d="M249.50001057237387,437.5000042244792h37a5,5,0,0,1,5,5v8a5,5,0,0,1,-5,5h-37a5,5,0,0,1,-5,-5v-8a5,5,0,0,1,5,-5z"></path><g id="node_text26" fill="black"><text id="kity_text_173" text-rendering="inherit" font-size="12" dy=".8em" y="438.7000041976571" x="249.50001057237387">留存率</text></g></g><g id="minder_node24"><g id="node_expander21" display="none" style="cursor: pointer;"><path id="kity_path_326" fill="white" stroke="gray" d="M307.50001134723425,407.5000036433339A6,6,0,1,1,295.50001134723425,407.5000036433339A6,6,0,1,1,307.50001134723425,407.5000036433339"></path><path id="kity_path_327" fill="none" stroke="gray"></path></g><path id="node_outline22" fill="none" stroke="none" d="M312.500011511147,398.5000036433339h62a5,5,0,0,1,5,5v8a5,5,0,0,1,-5,5h-62a5,5,0,0,1,-5,-5v-8a5,5,0,0,1,5,-5z"></path><g id="node_text22" fill="black"><text id="kity_text_165" text-rendering="inherit" font-size="12" dy=".8em" y="399.7000036165118" x="312.500011511147">次日留存率</text></g></g><g id="minder_node25"><g id="node_expander22" display="none" style="cursor: pointer;"><path id="kity_path_329" fill="white" stroke="gray" d="M307.50001134723425,433.5000040307641A6,6,0,1,1,295.50001134723425,433.5000040307641A6,6,0,1,1,307.50001134723425,433.5000040307641"></path><path id="kity_path_330" fill="none" stroke="gray"></path></g><path id="node_outline23" fill="none" stroke="none" d="M312.500011511147,424.5000040307641h61a5,5,0,0,1,5,5v8a5,5,0,0,1,-5,5h-61a5,5,0,0,1,-5,-5v-8a5,5,0,0,1,5,-5z"></path><g id="node_text23" fill="black"><text id="kity_text_167" text-rendering="inherit" font-size="12" dy=".8em" y="425.700004003942" x="312.500011511147">三日留存率</text></g></g><g id="minder_node26"><g id="node_expander23" display="none" style="cursor: pointer;"><path id="kity_path_332" fill="white" stroke="gray" d="M307.50001134723425,459.5000044181943A6,6,0,1,1,295.50001134723425,459.5000044181943A6,6,0,1,1,307.50001134723425,459.5000044181943"></path><path id="kity_path_333" fill="none" stroke="gray"></path></g><path id="node_outline24" fill="none" stroke="none" d="M312.500011511147,450.5000044181943h61a5,5,0,0,1,5,5v8a5,5,0,0,1,-5,5h-61a5,5,0,0,1,-5,-5v-8a5,5,0,0,1,5,-5z"></path><g id="node_text24" fill="black"><text id="kity_text_169" text-rendering="inherit" font-size="12" dy=".8em" y="451.7000043913722" x="312.500011511147">七日留存率</text></g></g><g id="minder_node27"><g id="node_expander24" display="none" style="cursor: pointer;"><path id="kity_path_335" fill="white" stroke="gray" d="M307.50001134723425,485.5000048056245A6,6,0,1,1,295.50001134723425,485.5000048056245A6,6,0,1,1,307.50001134723425,485.5000048056245"></path><path id="kity_path_336" fill="none" stroke="gray"></path></g><path id="node_outline25" fill="none" stroke="none" d="M312.500011511147,476.5000048056245h73a5,5,0,0,1,5,5v8a5,5,0,0,1,-5,5h-73a5,5,0,0,1,-5,-5v-8a5,5,0,0,1,5,-5z"></path><g id="node_text25" fill="black"><text id="kity_text_171" text-rendering="inherit" font-size="12" dy=".8em" y="477.7000047788024" x="312.500011511147">三十日留存率</text></g></g><g id="minder_node28"><g id="node_expander30" style="cursor: pointer;"><path id="kity_path_353" fill="white" stroke="gray" d="M244.5000104084611,550.5000057742A6,6,0,1,1,232.5000104084611,550.5000057742A6,6,0,1,1,244.5000104084611,550.5000057742"></path><path id="kity_path_354" fill="none" stroke="gray" d="M234.0000104084611,550.5000057742L243.0000104084611,550.5000057742"></path></g><path id="node_outline31" fill="none" stroke="none" d="M249.50001057237387,541.5000057742h38a5,5,0,0,1,5,5v8a5,5,0,0,1,-5,5h-38a5,5,0,0,1,-5,-5v-8a5,5,0,0,1,5,-5z"></path><g id="node_text31" fill="black"><text id="kity_text_183" text-rendering="inherit" font-size="12" dy=".8em" y="542.7000057473779" x="249.50001057237387">流失率</text></g></g><g id="minder_node29"><g id="node_expander26" display="none" style="cursor: pointer;"><path id="kity_path_341" fill="white" stroke="gray" d="M308.5000113621354,511.5000051930547A6,6,0,1,1,296.5000113621354,511.5000051930547A6,6,0,1,1,308.5000113621354,511.5000051930547"></path><path id="kity_path_342" fill="none" stroke="gray"></path></g><path id="node_outline27" fill="none" stroke="none" d="M313.5000115260482,502.5000051930547h62a5,5,0,0,1,5,5v8a5,5,0,0,1,-5,5h-62a5,5,0,0,1,-5,-5v-8a5,5,0,0,1,5,-5z"></path><g id="node_text27" fill="black"><text id="kity_text_175" text-rendering="inherit" font-size="12" dy=".8em" y="503.7000051662326" x="313.5000115260482">次日流失率</text></g></g><g id="minder_node30"><g id="node_expander27" display="none" style="cursor: pointer;"><path id="kity_path_344" fill="white" stroke="gray" d="M308.5000113621354,537.5000055804849A6,6,0,1,1,296.5000113621354,537.5000055804849A6,6,0,1,1,308.5000113621354,537.5000055804849"></path><path id="kity_path_345" fill="none" stroke="gray"></path></g><path id="node_outline28" fill="none" stroke="none" d="M313.5000115260482,528.5000055804849h61a5,5,0,0,1,5,5v8a5,5,0,0,1,-5,5h-61a5,5,0,0,1,-5,-5v-8a5,5,0,0,1,5,-5z"></path><g id="node_text28" fill="black"><text id="kity_text_177" text-rendering="inherit" font-size="12" dy=".8em" y="529.7000055536628" x="313.5000115260482">三日流失率</text></g></g><g id="minder_node31"><g id="node_expander28" display="none" style="cursor: pointer;"><path id="kity_path_347" fill="white" stroke="gray" d="M308.5000113621354,563.5000059679151A6,6,0,1,1,296.5000113621354,563.5000059679151A6,6,0,1,1,308.5000113621354,563.5000059679151"></path><path id="kity_path_348" fill="none" stroke="gray"></path></g><path id="node_outline29" fill="none" stroke="none" d="M313.5000115260482,554.5000059679151h61a5,5,0,0,1,5,5v8a5,5,0,0,1,-5,5h-61a5,5,0,0,1,-5,-5v-8a5,5,0,0,1,5,-5z"></path><g id="node_text29" fill="black"><text id="kity_text_179" text-rendering="inherit" font-size="12" dy=".8em" y="555.700005941093" x="313.5000115260482">七日流失率</text></g></g><g id="minder_node32"><g id="node_expander29" display="none" style="cursor: pointer;"><path id="kity_path_350" fill="white" stroke="gray" d="M308.5000113621354,589.5000063553452A6,6,0,1,1,296.5000113621354,589.5000063553452A6,6,0,1,1,308.5000113621354,589.5000063553452"></path><path id="kity_path_351" fill="none" stroke="gray"></path></g><path id="node_outline30" fill="none" stroke="none" d="M313.5000115260482,580.5000063553452h73a5,5,0,0,1,5,5v8a5,5,0,0,1,-5,5h-73a5,5,0,0,1,-5,-5v-8a5,5,0,0,1,5,-5z"></path><g id="node_text30" fill="black"><text id="kity_text_181" text-rendering="inherit" font-size="12" dy=".8em" y="581.7000063285232" x="313.5000115260482">三十日流失率</text></g></g><g id="minder_node33"><g id="node_expander42" style="cursor: pointer;"><path id="kity_path_389" fill="white" stroke="gray" d="M158.50000912696123,721.5000083222985A6,6,0,1,1,146.50000912696123,721.5000083222985A6,6,0,1,1,158.50000912696123,721.5000083222985"></path><path id="kity_path_390" fill="none" stroke="gray" d="M148.00000912696123,721.5000083222985L157.00000912696123,721.5000083222985"></path></g><path id="node_outline43" fill="rgb(239, 238, 246)" stroke="rgb(123, 115, 191)" d="M162.50000952929258,708.5000083222985h63a3,3,0,0,1,3,3v20a3,3,0,0,1,-3,3h-63a3,3,0,0,1,-3,-3v-20a3,3,0,0,1,3,-3z" stroke-width="1"></path><g id="node_text43" fill="black"><text id="kity_text_207" text-rendering="inherit" font-size="14" dy=".8em" y="712.4000082910061" x="179.50000952929258">营收</text></g></g><g id="minder_node34"><g id="node_expander34" style="cursor: pointer;"><path id="kity_path_365" fill="white" stroke="gray" d="M244.5000104084611,637.500007070601A6,6,0,1,1,232.5000104084611,637.500007070601A6,6,0,1,1,244.5000104084611,637.500007070601"></path><path id="kity_path_366" fill="none" stroke="gray" d="M234.0000104084611,637.500007070601L243.0000104084611,637.500007070601"></path></g><path id="node_outline35" fill="none" stroke="none" d="M249.50001057237387,628.500007070601h38a5,5,0,0,1,5,5v8a5,5,0,0,1,-5,5h-38a5,5,0,0,1,-5,-5v-8a5,5,0,0,1,5,-5z"></path><g id="node_text35" fill="black"><text id="kity_text_191" text-rendering="inherit" font-size="12" dy=".8em" y="629.7000070437789" x="249.50001057237387">付费率</text></g></g><g id="minder_node35"><g id="node_expander32" display="none" style="cursor: pointer;"><path id="kity_path_359" fill="white" stroke="gray" d="M308.5000113621354,624.5000068768859A6,6,0,1,1,296.5000113621354,624.5000068768859A6,6,0,1,1,308.5000113621354,624.5000068768859"></path><path id="kity_path_360" fill="none" stroke="gray"></path></g><path id="node_outline33" fill="none" stroke="none" d="M313.5000115260482,615.5000068768859h74a5,5,0,0,1,5,5v8a5,5,0,0,1,-5,5h-74a5,5,0,0,1,-5,-5v-8a5,5,0,0,1,5,-5z"></path><g id="node_text33" fill="black"><text id="kity_text_187" text-rendering="inherit" font-size="12" dy=".8em" y="616.7000068500638" x="313.5000115260482">付费用户占比</text></g></g><g id="minder_node36"><g id="node_expander33" display="none" style="cursor: pointer;"><path id="kity_path_362" fill="white" stroke="gray" d="M308.5000113621354,650.5000072643161A6,6,0,1,1,296.5000113621354,650.5000072643161A6,6,0,1,1,308.5000113621354,650.5000072643161"></path><path id="kity_path_363" fill="none" stroke="gray"></path></g><path id="node_outline34" fill="none" stroke="none" d="M313.5000115260482,641.5000072643161h109a5,5,0,0,1,5,5v8a5,5,0,0,1,-5,5h-109a5,5,0,0,1,-5,-5v-8a5,5,0,0,1,5,-5z"></path><g id="node_text34" fill="black"><text id="kity_text_189" text-rendering="inherit" font-size="12" dy=".8em" y="642.700007237494" x="313.5000115260482">活跃付费用户数APA</text></g></g><g id="minder_node37"><g id="node_expander35" display="none" style="cursor: pointer;"><path id="kity_path_368" fill="white" stroke="gray" d="M244.5000104084611,676.5000076517463A6,6,0,1,1,232.5000104084611,676.5000076517463A6,6,0,1,1,244.5000104084611,676.5000076517463"></path><path id="kity_path_369" fill="none" stroke="gray"></path></g><path id="node_outline36" fill="none" stroke="none" d="M249.50001057237387,667.5000076517463h78a5,5,0,0,1,5,5v8a5,5,0,0,1,-5,5h-78a5,5,0,0,1,-5,-5v-8a5,5,0,0,1,5,-5z"></path><g id="node_text36" fill="black"><text id="kity_text_193" text-rendering="inherit" font-size="12" dy=".8em" y="668.7000076249242" x="249.50001057237387">ARPU/ARPPU</text></g></g><g id="minder_node38"><g id="node_expander40" style="cursor: pointer;"><path id="kity_path_383" fill="white" stroke="gray" d="M244.5000104084611,741.5000086203218A6,6,0,1,1,232.5000104084611,741.5000086203218A6,6,0,1,1,244.5000104084611,741.5000086203218"></path><path id="kity_path_384" fill="none" stroke="gray" d="M234.0000104084611,741.5000086203218L243.0000104084611,741.5000086203218"></path></g><path id="node_outline41" fill="none" stroke="none" d="M249.50001057237387,732.5000086203218h74a5,5,0,0,1,5,5v8a5,5,0,0,1,-5,5h-74a5,5,0,0,1,-5,-5v-8a5,5,0,0,1,5,-5z"></path><g id="node_text41" fill="black"><text id="kity_text_203" text-rendering="inherit" font-size="12" dy=".8em" y="733.7000085934997" x="249.50001057237387">付费用户构成</text></g></g><g id="minder_node39"><g id="node_expander36" display="none" style="cursor: pointer;"><path id="kity_path_371" fill="white" stroke="gray" d="M344.5000118985772,702.5000080391765A6,6,0,1,1,332.5000118985772,702.5000080391765A6,6,0,1,1,344.5000118985772,702.5000080391765"></path><path id="kity_path_372" fill="none" stroke="gray"></path></g><path id="node_outline37" fill="none" stroke="none" d="M349.50001206249,693.5000080391765h25a5,5,0,0,1,5,5v8a5,5,0,0,1,-5,5h-25a5,5,0,0,1,-5,-5v-8a5,5,0,0,1,5,-5z"></path><g id="node_text37" fill="black"><text id="kity_text_195" text-rendering="inherit" font-size="12" dy=".8em" y="694.7000080123544" x="349.50001206249">高额</text></g></g><g id="minder_node40"><g id="node_expander37" display="none" style="cursor: pointer;"><path id="kity_path_374" fill="white" stroke="gray" d="M344.5000118985772,728.5000084266067A6,6,0,1,1,332.5000118985772,728.5000084266067A6,6,0,1,1,344.5000118985772,728.5000084266067"></path><path id="kity_path_375" fill="none" stroke="gray"></path></g><path id="node_outline38" fill="none" stroke="none" d="M349.50001206249,719.5000084266067h25a5,5,0,0,1,5,5v8a5,5,0,0,1,-5,5h-25a5,5,0,0,1,-5,-5v-8a5,5,0,0,1,5,-5z"></path><g id="node_text38" fill="black"><text id="kity_text_197" text-rendering="inherit" font-size="12" dy=".8em" y="720.7000083997846" x="349.50001206249">中额</text></g></g><g id="minder_node41"><g id="node_expander38" display="none" style="cursor: pointer;"><path id="kity_path_377" fill="white" stroke="gray" d="M344.5000118985772,754.5000088140368A6,6,0,1,1,332.5000118985772,754.5000088140368A6,6,0,1,1,344.5000118985772,754.5000088140368"></path><path id="kity_path_378" fill="none" stroke="gray"></path></g><path id="node_outline39" fill="none" stroke="none" d="M349.50001206249,745.5000088140368h26a5,5,0,0,1,5,5v8a5,5,0,0,1,-5,5h-26a5,5,0,0,1,-5,-5v-8a5,5,0,0,1,5,-5z"></path><g id="node_text39" fill="black"><text id="kity_text_199" text-rendering="inherit" font-size="12" dy=".8em" y="746.7000087872148" x="349.50001206249">低额</text></g></g><g id="minder_node42"><g id="node_expander39" display="none" style="cursor: pointer;"><path id="kity_path_380" fill="white" stroke="gray" d="M344.5000118985772,780.500009201467A6,6,0,1,1,332.5000118985772,780.500009201467A6,6,0,1,1,344.5000118985772,780.500009201467"></path><path id="kity_path_381" fill="none" stroke="gray"></path></g><path id="node_outline40" fill="none" stroke="none" d="M349.50001206249,771.500009201467h26a5,5,0,0,1,5,5v8a5,5,0,0,1,-5,5h-26a5,5,0,0,1,-5,-5v-8a5,5,0,0,1,5,-5z"></path><g id="node_text40" fill="black"><text id="kity_text_201" text-rendering="inherit" font-size="12" dy=".8em" y="772.700009174645" x="349.50001206249">其他</text></g></g><g id="minder_node43"><g id="node_expander41" display="none" style="cursor: pointer;"><path id="kity_path_386" fill="white" stroke="gray" d="M244.5000104084611,806.5000095888972A6,6,0,1,1,232.5000104084611,806.5000095888972A6,6,0,1,1,244.5000104084611,806.5000095888972"></path><path id="kity_path_387" fill="none" stroke="gray"></path></g><path id="node_outline42" fill="none" stroke="none" d="M249.50001057237387,797.5000095888972h22a5,5,0,0,1,5,5v8a5,5,0,0,1,-5,5h-22a5,5,0,0,1,-5,-5v-8a5,5,0,0,1,5,-5z"></path><g id="node_text42" fill="black"><text id="kity_text_205" text-rendering="inherit" font-size="12" dy=".8em" y="798.7000095620751" x="249.50001057237387">LTV</text></g></g><g id="minder_node44"><g id="node_expander47" style="cursor: pointer;"><path id="kity_path_404" fill="white" stroke="gray" d="M154.5000090673566,887.5000107958913A6,6,0,1,1,142.5000090673566,887.5000107958913A6,6,0,1,1,154.5000090673566,887.5000107958913"></path><path id="kity_path_405" fill="none" stroke="gray" d="M144.0000090673566,887.5000107958913L153.0000090673566,887.5000107958913"></path></g><path id="node_outline48" fill="rgb(239, 238, 246)" stroke="rgb(123, 115, 191)" d="M158.50000946968794,874.5000107958913h77a3,3,0,0,1,3,3v20a3,3,0,0,1,-3,3h-77a3,3,0,0,1,-3,-3v-20a3,3,0,0,1,3,-3z" stroke-width="1"></path><g id="node_text48" fill="black"><text id="kity_text_217" text-rendering="inherit" font-size="14" dy=".8em" y="878.4000107645988" x="175.50000946968794">自循环</text></g></g><g id="minder_node45"><g id="node_expander43" display="none" style="cursor: pointer;"><path id="kity_path_392" fill="white" stroke="gray" d="M254.5000105574727,848.500010214746A6,6,0,1,1,242.5000105574727,848.500010214746A6,6,0,1,1,254.5000105574727,848.500010214746"></path><path id="kity_path_393" fill="none" stroke="gray"></path></g><path id="node_outline44" fill="none" stroke="none" d="M259.5000107213855,839.500010214746h38a5,5,0,0,1,5,5v8a5,5,0,0,1,-5,5h-38a5,5,0,0,1,-5,-5v-8a5,5,0,0,1,5,-5z"></path><g id="node_text44" fill="black"><text id="kity_text_209" text-rendering="inherit" font-size="12" dy=".8em" y="840.7000101879239" x="259.5000107213855">转发率</text></g></g><g id="minder_node46"><g id="node_expander44" display="none" style="cursor: pointer;"><path id="kity_path_395" fill="white" stroke="gray" d="M254.5000105574727,874.5000106021762A6,6,0,1,1,242.5000105574727,874.5000106021762A6,6,0,1,1,254.5000105574727,874.5000106021762"></path><path id="kity_path_396" fill="none" stroke="gray"></path></g><path id="node_outline45" fill="none" stroke="none" d="M259.5000107213855,865.5000106021762h38a5,5,0,0,1,5,5v8a5,5,0,0,1,-5,5h-38a5,5,0,0,1,-5,-5v-8a5,5,0,0,1,5,-5z"></path><g id="node_text45" fill="black"><text id="kity_text_211" text-rendering="inherit" font-size="12" dy=".8em" y="866.7000105753541" x="259.5000107213855">转化率</text></g></g><g id="minder_node47"><g id="node_expander45" display="none" style="cursor: pointer;"><path id="kity_path_398" fill="white" stroke="gray" d="M254.5000105574727,900.5000109896064A6,6,0,1,1,242.5000105574727,900.5000109896064A6,6,0,1,1,254.5000105574727,900.5000109896064"></path><path id="kity_path_399" fill="none" stroke="gray"></path></g><path id="node_outline46" fill="none" stroke="none" d="M259.5000107213855,891.5000109896064h32a5,5,0,0,1,5,5v8a5,5,0,0,1,-5,5h-32a5,5,0,0,1,-5,-5v-8a5,5,0,0,1,5,-5z"></path><g id="node_text46" fill="black"><text id="kity_text_213" text-rendering="inherit" font-size="12" dy=".8em" y="892.7000109627843" x="259.5000107213855">K因子</text></g></g><g id="minder_node48"><g id="node_expander46" display="none" style="cursor: pointer;"><path id="kity_path_401" fill="white" stroke="gray" d="M254.5000105574727,926.5000113770366A6,6,0,1,1,242.5000105574727,926.5000113770366A6,6,0,1,1,254.5000105574727,926.5000113770366"></path><path id="kity_path_402" fill="none" stroke="gray"></path></g><path id="node_outline47" fill="none" stroke="none" d="M259.5000107213855,917.5000113770366h38a5,5,0,0,1,5,5v8a5,5,0,0,1,-5,5h-38a5,5,0,0,1,-5,-5v-8a5,5,0,0,1,5,-5z"></path><g id="node_text47" fill="black"><text id="kity_text_215" text-rendering="inherit" font-size="12" dy=".8em" y="918.7000113502145" x="259.5000107213855">病毒性</text></g></g></g></g></svg>